G04*
G04 #@! TF.GenerationSoftware,Altium Limited,Altium Designer,18.1.9 (240)*
G04*
G04 Layer_Physical_Order=2*
G04 Layer_Color=16711680*
%FSLAX24Y24*%
%MOIN*%
G70*
G01*
G75*
%ADD11C,0.0100*%
%ADD12C,0.0157*%
%ADD17R,0.0394X0.0433*%
%ADD61C,0.0394*%
%ADD62C,0.0197*%
%ADD63C,0.1299*%
%ADD64C,0.0630*%
%ADD65R,0.0630X0.0630*%
%ADD66C,0.0600*%
%ADD67C,0.1575*%
%ADD68C,0.0591*%
%ADD69R,0.0591X0.0591*%
%ADD70R,0.0630X0.0630*%
%ADD71R,0.0591X0.0591*%
%ADD72O,0.1378X0.1181*%
%ADD73O,0.1378X0.1575*%
%ADD74C,0.0240*%
%ADD75R,0.0591X0.0512*%
D11*
X2038Y8362D02*
X3121D01*
X1988Y8312D02*
X2038Y8362D01*
X3121D02*
X3383Y8100D01*
X2800Y7069D02*
X3383Y7652D01*
Y8100D01*
X5346Y10554D02*
X10776Y5124D01*
X4900Y11000D02*
X5346Y10554D01*
X10776Y5124D02*
X17190D01*
X17430Y4884D01*
Y4666D02*
Y4884D01*
Y4666D02*
X17820Y4276D01*
X19392D01*
X19500Y5052D01*
X20060Y5612D01*
X20912D01*
X23000Y7700D01*
X5346Y10554D02*
X6140D01*
X8923Y13337D01*
Y13512D01*
X14404Y8296D02*
X15000Y7700D01*
X13980Y8296D02*
X14404D01*
X13796Y8480D02*
X13980Y8296D01*
X13796Y8480D02*
Y9204D01*
X20000Y15409D01*
X15400Y20007D02*
X16160Y19246D01*
Y14324D02*
Y19246D01*
X14650Y12814D02*
X16160Y14324D01*
X12910Y12814D02*
X14650D01*
X12574Y4274D02*
X13000Y4700D01*
X9780Y4274D02*
X12574D01*
X4450Y9604D02*
X9780Y4274D01*
X4450Y9604D02*
Y11244D01*
X7720Y14514D01*
Y18661D01*
X8824Y19764D01*
Y20084D01*
X9174Y20434D01*
X13972D01*
X14400Y20007D01*
X23697Y13303D02*
X25000Y12000D01*
X18370Y13303D02*
X23697D01*
X18310Y13243D02*
X18370Y13303D01*
X18310Y13084D02*
Y13243D01*
X14352Y9126D02*
X18310Y13084D01*
X14140Y9126D02*
X14352D01*
X13974Y8960D02*
X14140Y9126D01*
X13974Y8640D02*
Y8960D01*
Y8640D02*
X14140Y8474D01*
X14990D01*
X15500Y7964D01*
X16000Y4700D02*
X16603Y4097D01*
X21020D01*
X21500Y4577D01*
Y5044D01*
X21890Y5434D01*
X22420D01*
X24430Y7444D01*
Y7924D01*
X24630Y8124D01*
X24820D01*
X26444Y9747D01*
Y10324D01*
X26324Y10444D02*
X26444Y10324D01*
X25556Y10444D02*
X26324D01*
X25000Y11000D02*
X25556Y10444D01*
X15690Y7274D02*
X16590Y6374D01*
X11740Y7274D02*
X15690D01*
X11570Y7444D02*
X11740Y7274D01*
X11570Y7444D02*
Y13124D01*
X13118Y14672D01*
X11400Y20007D02*
X14150Y17256D01*
X15510Y17074D02*
Y17804D01*
X14185Y15749D02*
X15510Y17074D01*
X8535Y15749D02*
X14185D01*
X8433Y15647D02*
X8535Y15749D01*
X8433Y14027D02*
Y15647D01*
X6460Y12054D02*
X8433Y14027D01*
X13617Y8083D02*
X14000Y7700D01*
X13617Y8083D02*
Y9280D01*
X19000Y14663D01*
Y17625D01*
X15220Y3024D02*
X24920D01*
X26622Y4726D01*
Y10460D01*
X26460Y10622D02*
X26622Y10460D01*
X26378Y10622D02*
X26460D01*
X26000Y11000D02*
X26378Y10622D01*
X12750Y3994D02*
X12826Y3919D01*
X22905D01*
X23500Y4514D01*
Y6200D01*
X25000Y7700D01*
X13000D02*
Y9684D01*
X18190Y14874D01*
Y17994D01*
X16400Y13944D02*
Y20007D01*
X12000Y9544D02*
X16400Y13944D01*
X12000Y7700D02*
Y9544D01*
X16618Y6082D02*
X18000Y4700D01*
X12373Y6082D02*
X16618D01*
X10850Y7604D02*
X12373Y6082D01*
X10850Y7604D02*
Y13044D01*
X9910Y13984D02*
X10850Y13044D01*
X9030Y13984D02*
X9910D01*
X6740Y11694D02*
X9030Y13984D01*
X6417Y11694D02*
X6740D01*
X6187Y11924D02*
X6417Y11694D01*
X6187Y11924D02*
Y12424D01*
X7940Y14178D01*
Y18547D01*
X9400Y20007D01*
X26000Y11000D02*
X26622Y11622D01*
Y12460D01*
X26460Y12622D02*
X26622Y12460D01*
X24632Y12622D02*
X26460D01*
X16820Y20434D02*
X24632Y12622D01*
X15160Y20434D02*
X16820D01*
X14970Y20244D02*
X15160Y20434D01*
X14970Y19764D02*
Y20244D01*
X14650Y19444D02*
X14970Y19764D01*
X13962Y19444D02*
X14650D01*
X13400Y20007D02*
X13962Y19444D01*
X24206Y20794D02*
X25000Y20000D01*
X5210Y20794D02*
X24206D01*
X4820Y20404D02*
X5210Y20794D01*
X4820Y13882D02*
Y20404D01*
X3900Y12961D02*
X4820Y13882D01*
X3900Y11000D02*
Y12961D01*
X19500Y19464D02*
X22300Y16664D01*
X19500Y19464D02*
Y20214D01*
X19100Y20614D02*
X19500Y20214D01*
X8008Y20614D02*
X19100D01*
X7400Y20007D02*
X8008Y20614D01*
X16900Y7700D02*
X17000D01*
X1988Y8312D02*
X2000Y8269D01*
X8800Y16000D02*
Y16500D01*
Y15100D02*
Y15500D01*
X2800Y6300D02*
Y7069D01*
X1000Y6300D02*
X2800D01*
X900Y6200D02*
X1000Y6300D01*
D12*
X1200Y7552D02*
X1284D01*
X1604Y7872D01*
X1600Y9500D02*
X3500D01*
X4000Y9000D01*
X900Y9794D02*
Y11000D01*
Y9794D02*
X1200Y9494D01*
X4000Y7700D02*
Y9000D01*
X2000Y8269D02*
Y8453D01*
X5250Y17245D02*
X6970Y15525D01*
X4290Y12845D02*
X6970Y15525D01*
X14340Y14784D02*
X15953D01*
X14673Y14452D02*
X14956D01*
X18000Y6554D02*
Y8284D01*
X18460Y6094D02*
X20590D01*
X15010Y15200D02*
X15500D01*
X12240D02*
X15010D01*
X8400Y2335D02*
Y2400D01*
X15953Y14564D02*
Y14784D01*
X13750Y16194D02*
X14510Y16954D01*
X13870Y14784D02*
X14340D01*
X14673Y14452D01*
X14170Y14954D02*
X14340Y14784D01*
X13700Y14954D02*
X14170D01*
X25504Y11504D02*
X26000Y12000D01*
X22804Y11504D02*
X25504D01*
X19000Y7700D02*
X22804Y11504D01*
X1760Y15645D02*
Y17440D01*
X18000Y6554D02*
X18460Y6094D01*
X20590D02*
X21460Y6964D01*
Y7964D01*
X21660Y8164D01*
X24164D01*
X26000Y10000D01*
X18400Y6964D02*
X18460Y7024D01*
Y12894D01*
X18620Y13054D01*
X18500Y6469D02*
X19000D01*
X2510Y7854D02*
X2513Y7852D01*
X15500Y14452D02*
X15841D01*
X15953Y14564D01*
X14760Y17204D02*
Y17924D01*
X10800Y16194D02*
X13750D01*
X8800Y14331D02*
X11244D01*
X12500Y14954D02*
X13700D01*
X13870Y14784D01*
X15953D02*
Y17844D01*
X15623Y18174D02*
X15953Y17844D01*
X15010Y18174D02*
X15623D01*
X14760Y17924D02*
X15010Y18174D01*
X14510Y16954D02*
X14760Y17204D01*
X9426Y16954D02*
X14510D01*
X9110Y17269D02*
X9426Y16954D01*
X8800Y17269D02*
X9110D01*
X1760Y15645D02*
X2827Y14578D01*
X11280Y13734D02*
X12500Y14954D01*
X8800Y17269D02*
Y18407D01*
X10400Y20007D01*
X14956Y14452D02*
X15500D01*
X14920Y14416D02*
X14956Y14452D01*
X4290Y12844D02*
Y12845D01*
X5250Y17245D02*
Y18654D01*
X18460Y5800D02*
X19000D01*
X18000Y6260D02*
X18460Y5800D01*
X18000Y6260D02*
Y7700D01*
X8166Y1934D02*
X8400Y1700D01*
X3384Y1934D02*
X8166D01*
X3134Y1684D02*
X3384Y1934D01*
X3134Y1031D02*
Y1684D01*
X14000Y1000D02*
X14476Y524D01*
X16524D01*
X17000Y1000D01*
X8800Y16500D02*
Y16600D01*
Y15000D02*
Y15100D01*
X8400Y2315D02*
Y2335D01*
X12040Y15000D02*
X12240Y15200D01*
X8800Y15000D02*
X12040D01*
X1200Y8300D02*
Y9494D01*
D17*
X8800Y14331D02*
D03*
Y15000D02*
D03*
Y16600D02*
D03*
Y17269D02*
D03*
X2000Y8269D02*
D03*
Y7600D02*
D03*
X8400Y1665D02*
D03*
Y2335D02*
D03*
X19000Y5800D02*
D03*
Y6469D02*
D03*
D61*
X4000Y7000D02*
Y7700D01*
X1200Y7552D02*
Y7600D01*
X2000Y8453D02*
Y8700D01*
X8400Y1665D02*
Y1700D01*
Y1000D02*
Y1665D01*
X19000Y4700D02*
Y5800D01*
Y6469D02*
Y7700D01*
X16900Y8800D02*
X18000Y7700D01*
X14300Y8800D02*
X16900D01*
X8435Y1700D02*
X12000D01*
X8400Y1665D02*
X8435Y1700D01*
X2000Y6900D02*
Y7600D01*
X4000Y7000D02*
X7100Y3900D01*
X12200D01*
Y3800D02*
Y3900D01*
Y3800D02*
X15000Y1000D01*
X8400Y2400D02*
Y2700D01*
X8200Y2900D02*
X8400Y2700D01*
X600Y8300D02*
X1200D01*
X600Y7000D02*
Y8300D01*
Y7000D02*
X1771D01*
D62*
X15600Y8300D02*
X16300D01*
X16900Y7700D01*
D63*
X6000Y20000D02*
D03*
X26000Y14000D02*
D03*
Y3000D02*
D03*
X5500Y1000D02*
D03*
D64*
X18000D02*
D03*
X17000D02*
D03*
X16000D02*
D03*
X15000D02*
D03*
X14000D02*
D03*
X13000D02*
D03*
X12000D02*
D03*
X5900Y11000D02*
D03*
X4900D02*
D03*
X3900D02*
D03*
X2900D02*
D03*
X1900D02*
D03*
X25000Y1000D02*
D03*
X24000D02*
D03*
X23000D02*
D03*
X22000D02*
D03*
X21000D02*
D03*
X26000Y12000D02*
D03*
X25000Y11000D02*
D03*
X26000D02*
D03*
X25000Y10000D02*
D03*
X26000D02*
D03*
X18000Y20000D02*
D03*
X19000D02*
D03*
X20000D02*
D03*
X21000D02*
D03*
X22000D02*
D03*
X23000D02*
D03*
X24000D02*
D03*
D65*
X11000Y1000D02*
D03*
X900Y11000D02*
D03*
X20000Y1000D02*
D03*
X25000Y20000D02*
D03*
D66*
X3614Y14578D02*
D03*
Y15562D02*
D03*
X2827Y14578D02*
D03*
Y15562D02*
D03*
X1760Y17440D02*
D03*
D67*
Y12700D02*
D03*
Y17440D02*
D03*
D68*
X12000Y4700D02*
D03*
X13000D02*
D03*
X14000D02*
D03*
X15000D02*
D03*
X16000D02*
D03*
X17000D02*
D03*
X18000D02*
D03*
X19000D02*
D03*
X20000D02*
D03*
X21000D02*
D03*
X22000D02*
D03*
X23000D02*
D03*
X24000D02*
D03*
X25000D02*
D03*
X12000Y7700D02*
D03*
X13000D02*
D03*
X14000D02*
D03*
X15000D02*
D03*
X16000D02*
D03*
X17000D02*
D03*
X18000D02*
D03*
X19000D02*
D03*
X20000D02*
D03*
X21000D02*
D03*
X22000D02*
D03*
X23000D02*
D03*
X24000D02*
D03*
X9400Y20007D02*
D03*
X16400D02*
D03*
X15400D02*
D03*
X14400D02*
D03*
X13400D02*
D03*
X12400D02*
D03*
X11400D02*
D03*
X10400D02*
D03*
X8400D02*
D03*
D69*
X25000Y7700D02*
D03*
D70*
Y12000D02*
D03*
D71*
X7400Y20007D02*
D03*
D72*
X3134Y1031D02*
D03*
D73*
X1953Y3000D02*
D03*
X4394D02*
D03*
D74*
X1604Y7872D02*
D03*
X1600Y9500D02*
D03*
X4000Y7700D02*
D03*
X2000Y8700D02*
D03*
X6970Y15525D02*
D03*
X8923Y13512D02*
D03*
X20000Y15409D02*
D03*
X12910Y12814D02*
D03*
X15500Y7964D02*
D03*
X16590Y6374D02*
D03*
X13118Y14672D02*
D03*
X14150Y17256D02*
D03*
X15510Y17804D02*
D03*
X6460Y12054D02*
D03*
X19000Y17625D02*
D03*
X15220Y3024D02*
D03*
X12750Y3994D02*
D03*
X18000Y8284D02*
D03*
X18400Y6964D02*
D03*
X18620Y13054D02*
D03*
X18500Y6469D02*
D03*
X2510Y7854D02*
D03*
X10800Y16194D02*
D03*
X11244Y14331D02*
D03*
X11280Y13734D02*
D03*
X18190Y17994D02*
D03*
X14920Y14416D02*
D03*
X4290Y12844D02*
D03*
X5250Y18654D02*
D03*
X15010Y15200D02*
D03*
X22300Y16664D02*
D03*
X8800Y16000D02*
D03*
Y15500D02*
D03*
X14300Y8800D02*
D03*
X15600Y8300D02*
D03*
X900Y6200D02*
D03*
X12000Y1700D02*
D03*
X2000Y6900D02*
D03*
X8200Y2900D02*
D03*
X8400Y1000D02*
D03*
D75*
X1200Y7552D02*
D03*
Y8300D02*
D03*
X15500Y14452D02*
D03*
Y15200D02*
D03*
M02*
