G04*
G04 #@! TF.GenerationSoftware,Altium Limited,Altium Designer,18.1.9 (240)*
G04*
G04 Layer_Color=255*
%FSLAX24Y24*%
%MOIN*%
G70*
G01*
G75*
%ADD17R,0.0394X0.0433*%
%ADD63C,0.1299*%
%ADD64C,0.0630*%
%ADD65R,0.0630X0.0630*%
%ADD66C,0.0600*%
%ADD67C,0.1575*%
%ADD68C,0.0591*%
%ADD69R,0.0591X0.0591*%
%ADD70R,0.0630X0.0630*%
%ADD71R,0.0591X0.0591*%
%ADD72O,0.1378X0.1181*%
%ADD73O,0.1378X0.1575*%
%ADD75R,0.0591X0.0512*%
D17*
X8800Y14331D02*
D03*
Y15000D02*
D03*
Y16600D02*
D03*
Y17269D02*
D03*
X2000Y8269D02*
D03*
Y7600D02*
D03*
X8400Y1665D02*
D03*
Y2335D02*
D03*
X19000Y5800D02*
D03*
Y6469D02*
D03*
D63*
X6000Y20000D02*
D03*
X26000Y14000D02*
D03*
Y3000D02*
D03*
X5500Y1000D02*
D03*
D64*
X18000D02*
D03*
X17000D02*
D03*
X16000D02*
D03*
X15000D02*
D03*
X14000D02*
D03*
X13000D02*
D03*
X12000D02*
D03*
X5900Y11000D02*
D03*
X4900D02*
D03*
X3900D02*
D03*
X2900D02*
D03*
X1900D02*
D03*
X25000Y1000D02*
D03*
X24000D02*
D03*
X23000D02*
D03*
X22000D02*
D03*
X21000D02*
D03*
X26000Y12000D02*
D03*
X25000Y11000D02*
D03*
X26000D02*
D03*
X25000Y10000D02*
D03*
X26000D02*
D03*
X18000Y20000D02*
D03*
X19000D02*
D03*
X20000D02*
D03*
X21000D02*
D03*
X22000D02*
D03*
X23000D02*
D03*
X24000D02*
D03*
D65*
X11000Y1000D02*
D03*
X900Y11000D02*
D03*
X20000Y1000D02*
D03*
X25000Y20000D02*
D03*
D66*
X3614Y14578D02*
D03*
Y15562D02*
D03*
X2827Y14578D02*
D03*
Y15562D02*
D03*
X1760Y17440D02*
D03*
D67*
Y12700D02*
D03*
Y17440D02*
D03*
D68*
X12000Y4700D02*
D03*
X13000D02*
D03*
X14000D02*
D03*
X15000D02*
D03*
X16000D02*
D03*
X17000D02*
D03*
X18000D02*
D03*
X19000D02*
D03*
X20000D02*
D03*
X21000D02*
D03*
X22000D02*
D03*
X23000D02*
D03*
X24000D02*
D03*
X25000D02*
D03*
X12000Y7700D02*
D03*
X13000D02*
D03*
X14000D02*
D03*
X15000D02*
D03*
X16000D02*
D03*
X17000D02*
D03*
X18000D02*
D03*
X19000D02*
D03*
X20000D02*
D03*
X21000D02*
D03*
X22000D02*
D03*
X23000D02*
D03*
X24000D02*
D03*
X9400Y20007D02*
D03*
X16400D02*
D03*
X15400D02*
D03*
X14400D02*
D03*
X13400D02*
D03*
X12400D02*
D03*
X11400D02*
D03*
X10400D02*
D03*
X8400D02*
D03*
D69*
X25000Y7700D02*
D03*
D70*
Y12000D02*
D03*
D71*
X7400Y20007D02*
D03*
D72*
X3134Y1031D02*
D03*
D73*
X1953Y3000D02*
D03*
X4394D02*
D03*
D75*
X1200Y7552D02*
D03*
Y8300D02*
D03*
X15500Y14452D02*
D03*
Y15200D02*
D03*
M02*
