G04*
G04 #@! TF.GenerationSoftware,Altium Limited,Altium Designer,18.1.9 (240)*
G04*
G04 Layer_Color=128*
%FSLAX24Y24*%
%MOIN*%
G70*
G01*
G75*
%ADD84C,0.0050*%
D84*
X5380Y20000D02*
X6620D01*
X6000Y19380D02*
Y20620D01*
X25380Y14000D02*
X26620D01*
X26000Y13380D02*
Y14620D01*
X25380Y3000D02*
X26620D01*
X26000Y2380D02*
Y3620D01*
X4880Y1000D02*
X6120D01*
X5500Y380D02*
Y1620D01*
X17803Y1000D02*
X18197D01*
X18000Y803D02*
Y1197D01*
X16803Y1000D02*
X17197D01*
X17000Y803D02*
Y1197D01*
X15803Y1000D02*
X16197D01*
X16000Y803D02*
Y1197D01*
X14803Y1000D02*
X15197D01*
X15000Y803D02*
Y1197D01*
X13803Y1000D02*
X14197D01*
X14000Y803D02*
Y1197D01*
X12803Y1000D02*
X13197D01*
X13000Y803D02*
Y1197D01*
X11803Y1000D02*
X12197D01*
X12000Y803D02*
Y1197D01*
X10803Y1000D02*
X11197D01*
X11000Y803D02*
Y1197D01*
X3433Y14578D02*
X3795D01*
X3614Y14397D02*
Y14759D01*
X3433Y15562D02*
X3795D01*
X3614Y15381D02*
Y15743D01*
X2646Y14578D02*
X3008D01*
X2827Y14397D02*
Y14759D01*
X2646Y15562D02*
X3008D01*
X2827Y15381D02*
Y15743D01*
X1307Y12700D02*
X2213D01*
X1760Y12247D02*
Y13153D01*
X1307Y17440D02*
X2213D01*
X1760Y16987D02*
Y17893D01*
X1610Y17440D02*
X1910D01*
X1760Y17290D02*
Y17590D01*
X5703Y11000D02*
X6097D01*
X5900Y10803D02*
Y11197D01*
X4703Y11000D02*
X5097D01*
X4900Y10803D02*
Y11197D01*
X3703Y11000D02*
X4097D01*
X3900Y10803D02*
Y11197D01*
X2703Y11000D02*
X3097D01*
X2900Y10803D02*
Y11197D01*
X1703Y11000D02*
X2097D01*
X1900Y10803D02*
Y11197D01*
X703Y11000D02*
X1097D01*
X900Y10803D02*
Y11197D01*
X11823Y4700D02*
X12177D01*
X12000Y4523D02*
Y4877D01*
X12823Y4700D02*
X13177D01*
X13000Y4523D02*
Y4877D01*
X13823Y4700D02*
X14177D01*
X14000Y4523D02*
Y4877D01*
X14823Y4700D02*
X15177D01*
X15000Y4523D02*
Y4877D01*
X15823Y4700D02*
X16177D01*
X16000Y4523D02*
Y4877D01*
X16823Y4700D02*
X17177D01*
X17000Y4523D02*
Y4877D01*
X17823Y4700D02*
X18177D01*
X18000Y4523D02*
Y4877D01*
X18823Y4700D02*
X19177D01*
X19000Y4523D02*
Y4877D01*
X19823Y4700D02*
X20177D01*
X20000Y4523D02*
Y4877D01*
X20823Y4700D02*
X21177D01*
X21000Y4523D02*
Y4877D01*
X21823Y4700D02*
X22177D01*
X22000Y4523D02*
Y4877D01*
X22823Y4700D02*
X23177D01*
X23000Y4523D02*
Y4877D01*
X23823Y4700D02*
X24177D01*
X24000Y4523D02*
Y4877D01*
X24823Y4700D02*
X25177D01*
X25000Y4523D02*
Y4877D01*
X11823Y7700D02*
X12177D01*
X12000Y7523D02*
Y7877D01*
X12823Y7700D02*
X13177D01*
X13000Y7523D02*
Y7877D01*
X13823Y7700D02*
X14177D01*
X14000Y7523D02*
Y7877D01*
X14823Y7700D02*
X15177D01*
X15000Y7523D02*
Y7877D01*
X15823Y7700D02*
X16177D01*
X16000Y7523D02*
Y7877D01*
X16823Y7700D02*
X17177D01*
X17000Y7523D02*
Y7877D01*
X17823Y7700D02*
X18177D01*
X18000Y7523D02*
Y7877D01*
X18823Y7700D02*
X19177D01*
X19000Y7523D02*
Y7877D01*
X19823Y7700D02*
X20177D01*
X20000Y7523D02*
Y7877D01*
X20823Y7700D02*
X21177D01*
X21000Y7523D02*
Y7877D01*
X21823Y7700D02*
X22177D01*
X22000Y7523D02*
Y7877D01*
X22823Y7700D02*
X23177D01*
X23000Y7523D02*
Y7877D01*
X23823Y7700D02*
X24177D01*
X24000Y7523D02*
Y7877D01*
X24823Y7700D02*
X25177D01*
X25000Y7523D02*
Y7877D01*
X24803Y1000D02*
X25197D01*
X25000Y803D02*
Y1197D01*
X23803Y1000D02*
X24197D01*
X24000Y803D02*
Y1197D01*
X22803Y1000D02*
X23197D01*
X23000Y803D02*
Y1197D01*
X21803Y1000D02*
X22197D01*
X22000Y803D02*
Y1197D01*
X20803Y1000D02*
X21197D01*
X21000Y803D02*
Y1197D01*
X19803Y1000D02*
X20197D01*
X20000Y803D02*
Y1197D01*
X24803Y12000D02*
X25197D01*
X25000Y11803D02*
Y12197D01*
X25803Y12000D02*
X26197D01*
X26000Y11803D02*
Y12197D01*
X24803Y11000D02*
X25197D01*
X25000Y10803D02*
Y11197D01*
X25803Y11000D02*
X26197D01*
X26000Y10803D02*
Y11197D01*
X24803Y10000D02*
X25197D01*
X25000Y9803D02*
Y10197D01*
X25803Y10000D02*
X26197D01*
X26000Y9803D02*
Y10197D01*
X9223Y20007D02*
X9577D01*
X9400Y19829D02*
Y20184D01*
X16223Y20007D02*
X16577D01*
X16400Y19829D02*
Y20184D01*
X15223Y20007D02*
X15577D01*
X15400Y19829D02*
Y20184D01*
X14223Y20007D02*
X14577D01*
X14400Y19829D02*
Y20184D01*
X13223Y20007D02*
X13577D01*
X13400Y19829D02*
Y20184D01*
X12223Y20007D02*
X12577D01*
X12400Y19829D02*
Y20184D01*
X11223Y20007D02*
X11577D01*
X11400Y19829D02*
Y20184D01*
X10223Y20007D02*
X10577D01*
X10400Y19829D02*
Y20184D01*
X8223Y20007D02*
X8577D01*
X8400Y19829D02*
Y20184D01*
X7223Y20007D02*
X7577D01*
X7400Y19829D02*
Y20184D01*
X17803Y20000D02*
X18197D01*
X18000Y19803D02*
Y20197D01*
X18803Y20000D02*
X19197D01*
X19000Y19803D02*
Y20197D01*
X19803Y20000D02*
X20197D01*
X20000Y19803D02*
Y20197D01*
X20803Y20000D02*
X21197D01*
X21000Y19803D02*
Y20197D01*
X21803Y20000D02*
X22197D01*
X22000Y19803D02*
Y20197D01*
X22803Y20000D02*
X23197D01*
X23000Y19803D02*
Y20197D01*
X23803Y20000D02*
X24197D01*
X24000Y19803D02*
Y20197D01*
X24803Y20000D02*
X25197D01*
X25000Y19803D02*
Y20197D01*
X2701Y1031D02*
X3567D01*
X3134Y598D02*
Y1465D01*
X1421Y3000D02*
X2484D01*
X1953Y2469D02*
Y3532D01*
X3862Y3000D02*
X4925D01*
X4394Y2469D02*
Y3532D01*
X1544Y7872D02*
X1664D01*
X1604Y7812D02*
Y7932D01*
X1540Y9500D02*
X1660D01*
X1600Y9440D02*
Y9560D01*
X3940Y7700D02*
X4060D01*
X4000Y7640D02*
Y7760D01*
X1940Y8700D02*
X2060D01*
X2000Y8640D02*
Y8760D01*
X6910Y15525D02*
X7030D01*
X6970Y15465D02*
Y15585D01*
X8863Y13512D02*
X8983D01*
X8923Y13452D02*
Y13572D01*
X19940Y15409D02*
X20060D01*
X20000Y15349D02*
Y15469D01*
X12850Y12814D02*
X12970D01*
X12910Y12754D02*
Y12874D01*
X15440Y7964D02*
X15560D01*
X15500Y7904D02*
Y8024D01*
X16530Y6374D02*
X16650D01*
X16590Y6314D02*
Y6434D01*
X13058Y14672D02*
X13178D01*
X13118Y14612D02*
Y14732D01*
X14090Y17256D02*
X14210D01*
X14150Y17196D02*
Y17316D01*
X15450Y17804D02*
X15570D01*
X15510Y17744D02*
Y17864D01*
X6400Y12054D02*
X6520D01*
X6460Y11994D02*
Y12114D01*
X18940Y17625D02*
X19060D01*
X19000Y17565D02*
Y17685D01*
X15160Y3024D02*
X15280D01*
X15220Y2964D02*
Y3084D01*
X12690Y3994D02*
X12810D01*
X12750Y3934D02*
Y4054D01*
X17940Y8284D02*
X18060D01*
X18000Y8224D02*
Y8344D01*
X18340Y6964D02*
X18460D01*
X18400Y6904D02*
Y7024D01*
X18560Y13054D02*
X18680D01*
X18620Y12994D02*
Y13114D01*
X18440Y6469D02*
X18560D01*
X18500Y6409D02*
Y6529D01*
X2450Y7854D02*
X2570D01*
X2510Y7794D02*
Y7914D01*
X10740Y16194D02*
X10860D01*
X10800Y16134D02*
Y16254D01*
X11184Y14331D02*
X11304D01*
X11244Y14271D02*
Y14391D01*
X11220Y13734D02*
X11340D01*
X11280Y13674D02*
Y13794D01*
X18130Y17994D02*
X18250D01*
X18190Y17934D02*
Y18054D01*
X14860Y14416D02*
X14980D01*
X14920Y14356D02*
Y14476D01*
X4230Y12844D02*
X4350D01*
X4290Y12784D02*
Y12904D01*
X5190Y18654D02*
X5310D01*
X5250Y18594D02*
Y18714D01*
X14950Y15200D02*
X15070D01*
X15010Y15140D02*
Y15260D01*
X22240Y16664D02*
X22360D01*
X22300Y16604D02*
Y16724D01*
X8740Y16000D02*
X8860D01*
X8800Y15940D02*
Y16060D01*
X8740Y15500D02*
X8860D01*
X8800Y15440D02*
Y15560D01*
X14240Y8800D02*
X14360D01*
X14300Y8740D02*
Y8860D01*
X15540Y8300D02*
X15660D01*
X15600Y8240D02*
Y8360D01*
X840Y6200D02*
X960D01*
X900Y6140D02*
Y6260D01*
X11940Y1700D02*
X12060D01*
X12000Y1640D02*
Y1760D01*
X1940Y6900D02*
X2060D01*
X2000Y6840D02*
Y6960D01*
X8140Y2900D02*
X8260D01*
X8200Y2840D02*
Y2960D01*
X8340Y1000D02*
X8460D01*
X8400Y940D02*
Y1060D01*
M02*
