G04*
G04 #@! TF.GenerationSoftware,Altium Limited,Altium Designer,18.1.9 (240)*
G04*
G04 Layer_Color=32768*
%FSLAX24Y24*%
%MOIN*%
G70*
G01*
G75*
%ADD11C,0.0100*%
%ADD16C,0.0060*%
%ADD77C,0.0005*%
%ADD78C,0.0150*%
%ADD79C,0.0010*%
G36*
X-2266Y0D02*
X-2278Y71D01*
X-2254D01*
X-2266Y0D01*
D02*
G37*
G36*
X-2254Y20913D02*
X-2278D01*
X-2266Y20984D01*
X-2254Y20913D01*
D02*
G37*
D11*
X26982Y-900D02*
Y1799D01*
X0Y-900D02*
Y289D01*
X14891Y-800D02*
X26982D01*
X0D02*
X11772D01*
X26382Y-600D02*
X26982Y-800D01*
X26382Y-1000D02*
X26982Y-800D01*
X0D02*
X600Y-1000D01*
X0Y-800D02*
X600Y-600D01*
X65295Y27500D02*
Y26900D01*
X65595D01*
X65694Y27000D01*
Y27100D01*
X65595Y27200D01*
X65295D01*
X65595D01*
X65694Y27300D01*
Y27400D01*
X65595Y27500D01*
X65295D01*
X65994Y26900D02*
X66194D01*
X66294Y27000D01*
Y27200D01*
X66194Y27300D01*
X65994D01*
X65894Y27200D01*
Y27000D01*
X65994Y26900D01*
X66594Y27300D02*
X66794D01*
X66894Y27200D01*
Y26900D01*
X66594D01*
X66494Y27000D01*
X66594Y27100D01*
X66894D01*
X67094Y27300D02*
Y26900D01*
Y27100D01*
X67194Y27200D01*
X67294Y27300D01*
X67394D01*
X68094Y27500D02*
Y26900D01*
X67794D01*
X67694Y27000D01*
Y27200D01*
X67794Y27300D01*
X68094D01*
X68893Y27500D02*
Y26900D01*
X69293D01*
X69593Y27300D02*
X69793D01*
X69893Y27200D01*
Y26900D01*
X69593D01*
X69493Y27000D01*
X69593Y27100D01*
X69893D01*
X70093Y27300D02*
Y27000D01*
X70193Y26900D01*
X70493D01*
Y26800D01*
X70393Y26700D01*
X70293D01*
X70493Y26900D02*
Y27300D01*
X70993Y26900D02*
X70793D01*
X70693Y27000D01*
Y27200D01*
X70793Y27300D01*
X70993D01*
X71093Y27200D01*
Y27100D01*
X70693D01*
X71293Y27300D02*
Y26900D01*
Y27100D01*
X71393Y27200D01*
X71493Y27300D01*
X71593D01*
X72892Y27400D02*
X72792Y27500D01*
X72592D01*
X72492Y27400D01*
Y27300D01*
X72592Y27200D01*
X72792D01*
X72892Y27100D01*
Y27000D01*
X72792Y26900D01*
X72592D01*
X72492Y27000D01*
X73192Y27400D02*
Y27300D01*
X73092D01*
X73292D01*
X73192D01*
Y27000D01*
X73292Y26900D01*
X73692Y27300D02*
X73892D01*
X73992Y27200D01*
Y26900D01*
X73692D01*
X73592Y27000D01*
X73692Y27100D01*
X73992D01*
X74592Y27300D02*
X74292D01*
X74192Y27200D01*
Y27000D01*
X74292Y26900D01*
X74592D01*
X74792D02*
Y27500D01*
Y27100D02*
X75091Y27300D01*
X74792Y27100D02*
X75091Y26900D01*
X59596Y25000D02*
X59696Y25100D01*
X59896D01*
X59996Y25000D01*
Y24900D01*
X59896Y24800D01*
X59796D01*
X59896D01*
X59996Y24700D01*
Y24600D01*
X59896Y24500D01*
X59696D01*
X59596Y24600D01*
X60296Y24400D02*
X60396Y24500D01*
Y24600D01*
X60296D01*
Y24500D01*
X60396D01*
X60296Y24400D01*
X60196Y24300D01*
X61196Y25100D02*
X60796D01*
Y24800D01*
X60996Y24900D01*
X61096D01*
X61196Y24800D01*
Y24600D01*
X61096Y24500D01*
X60896D01*
X60796Y24600D01*
X59896Y22100D02*
Y22700D01*
X59596Y22400D01*
X59996D01*
X60296Y22000D02*
X60396Y22100D01*
Y22200D01*
X60296D01*
Y22100D01*
X60396D01*
X60296Y22000D01*
X60196Y21900D01*
X60796Y22600D02*
X60896Y22700D01*
X61096D01*
X61196Y22600D01*
Y22500D01*
X61096Y22400D01*
X61196Y22300D01*
Y22200D01*
X61096Y22100D01*
X60896D01*
X60796Y22200D01*
Y22300D01*
X60896Y22400D01*
X60796Y22500D01*
Y22600D01*
X60896Y22400D02*
X61096D01*
X59596Y20200D02*
X59696Y20300D01*
X59896D01*
X59996Y20200D01*
Y20100D01*
X59896Y20000D01*
X59796D01*
X59896D01*
X59996Y19900D01*
Y19800D01*
X59896Y19700D01*
X59696D01*
X59596Y19800D01*
X60296Y19600D02*
X60396Y19700D01*
Y19800D01*
X60296D01*
Y19700D01*
X60396D01*
X60296Y19600D01*
X60196Y19500D01*
X61196Y20300D02*
X60796D01*
Y20000D01*
X60996Y20100D01*
X61096D01*
X61196Y20000D01*
Y19800D01*
X61096Y19700D01*
X60896D01*
X60796Y19800D01*
X59996Y27400D02*
X59896Y27500D01*
X59696D01*
X59596Y27400D01*
Y27000D01*
X59696Y26900D01*
X59896D01*
X59996Y27000D01*
X60296Y26900D02*
X60496D01*
X60596Y27000D01*
Y27200D01*
X60496Y27300D01*
X60296D01*
X60196Y27200D01*
Y27000D01*
X60296Y26900D01*
X60796D02*
Y27300D01*
X61096D01*
X61196Y27200D01*
Y26900D01*
X61395D02*
X61695D01*
X61795Y27000D01*
X61695Y27100D01*
X61495D01*
X61395Y27200D01*
X61495Y27300D01*
X61795D01*
X62095Y27400D02*
Y27300D01*
X61995D01*
X62195D01*
X62095D01*
Y27000D01*
X62195Y26900D01*
X62595Y27300D02*
X62795D01*
X62895Y27200D01*
Y26900D01*
X62595D01*
X62495Y27000D01*
X62595Y27100D01*
X62895D01*
X63095Y26900D02*
Y27300D01*
X63395D01*
X63495Y27200D01*
Y26900D01*
X63795Y27400D02*
Y27300D01*
X63695D01*
X63895D01*
X63795D01*
Y27000D01*
X63895Y26900D01*
X53098Y25000D02*
X53198Y25100D01*
X53398D01*
X53498Y25000D01*
Y24600D01*
X53398Y24500D01*
X53198D01*
X53098Y24600D01*
Y25000D01*
X53797Y24400D02*
X53897Y24500D01*
Y24600D01*
X53797D01*
Y24500D01*
X53897D01*
X53797Y24400D01*
X53697Y24300D01*
X54597Y24500D02*
Y25100D01*
X54297Y24800D01*
X54697D01*
X54897Y25000D02*
X54997Y25100D01*
X55197D01*
X55297Y25000D01*
Y24600D01*
X55197Y24500D01*
X54997D01*
X54897Y24600D01*
Y25000D01*
X55497Y24500D02*
Y24900D01*
X55597D01*
X55697Y24800D01*
Y24500D01*
Y24800D01*
X55797Y24900D01*
X55897Y24800D01*
Y24500D01*
X56097D02*
X56297D01*
X56197D01*
Y24900D01*
X56097D01*
X56597Y24500D02*
X56796D01*
X56697D01*
Y25100D01*
X56597D01*
X53098Y23300D02*
X53298D01*
X53198D01*
Y23900D01*
X53098Y23800D01*
X53697Y23200D02*
X53797Y23300D01*
Y23400D01*
X53697D01*
Y23300D01*
X53797D01*
X53697Y23200D01*
X53598Y23100D01*
X54497Y23300D02*
Y23900D01*
X54197Y23600D01*
X54597D01*
X54797Y23800D02*
X54897Y23900D01*
X55097D01*
X55197Y23800D01*
Y23400D01*
X55097Y23300D01*
X54897D01*
X54797Y23400D01*
Y23800D01*
X55397Y23300D02*
Y23700D01*
X55497D01*
X55597Y23600D01*
Y23300D01*
Y23600D01*
X55697Y23700D01*
X55797Y23600D01*
Y23300D01*
X55997D02*
X56197D01*
X56097D01*
Y23700D01*
X55997D01*
X56497Y23300D02*
X56697D01*
X56597D01*
Y23900D01*
X56497D01*
X53098Y22100D02*
X53298D01*
X53198D01*
Y22700D01*
X53098Y22600D01*
X53997Y22100D02*
X53598D01*
X53997Y22500D01*
Y22600D01*
X53897Y22700D01*
X53697D01*
X53598Y22600D01*
X54297Y22000D02*
X54397Y22100D01*
Y22200D01*
X54297D01*
Y22100D01*
X54397D01*
X54297Y22000D01*
X54197Y21900D01*
X55197Y22700D02*
X54997Y22600D01*
X54797Y22400D01*
Y22200D01*
X54897Y22100D01*
X55097D01*
X55197Y22200D01*
Y22300D01*
X55097Y22400D01*
X54797D01*
X55397Y22600D02*
X55497Y22700D01*
X55697D01*
X55797Y22600D01*
Y22200D01*
X55697Y22100D01*
X55497D01*
X55397Y22200D01*
Y22600D01*
X55997Y22100D02*
Y22500D01*
X56097D01*
X56197Y22400D01*
Y22100D01*
Y22400D01*
X56297Y22500D01*
X56397Y22400D01*
Y22100D01*
X56597D02*
X56796D01*
X56697D01*
Y22500D01*
X56597D01*
X57096Y22100D02*
X57296D01*
X57196D01*
Y22700D01*
X57096D01*
X53098Y20900D02*
X53298D01*
X53198D01*
Y21500D01*
X53098Y21400D01*
X53697Y20800D02*
X53797Y20900D01*
Y21000D01*
X53697D01*
Y20900D01*
X53797D01*
X53697Y20800D01*
X53598Y20700D01*
X54497Y20900D02*
Y21500D01*
X54197Y21200D01*
X54597D01*
X54797Y21400D02*
X54897Y21500D01*
X55097D01*
X55197Y21400D01*
Y21000D01*
X55097Y20900D01*
X54897D01*
X54797Y21000D01*
Y21400D01*
X55397Y20900D02*
Y21300D01*
X55497D01*
X55597Y21200D01*
Y20900D01*
Y21200D01*
X55697Y21300D01*
X55797Y21200D01*
Y20900D01*
X55997D02*
X56197D01*
X56097D01*
Y21300D01*
X55997D01*
X56497Y20900D02*
X56697D01*
X56597D01*
Y21500D01*
X56497D01*
X53098Y20200D02*
X53198Y20300D01*
X53398D01*
X53498Y20200D01*
Y19800D01*
X53398Y19700D01*
X53198D01*
X53098Y19800D01*
Y20200D01*
X53797Y19600D02*
X53897Y19700D01*
Y19800D01*
X53797D01*
Y19700D01*
X53897D01*
X53797Y19600D01*
X53697Y19500D01*
X54597Y19700D02*
Y20300D01*
X54297Y20000D01*
X54697D01*
X54897Y20200D02*
X54997Y20300D01*
X55197D01*
X55297Y20200D01*
Y19800D01*
X55197Y19700D01*
X54997D01*
X54897Y19800D01*
Y20200D01*
X55497Y19700D02*
Y20100D01*
X55597D01*
X55697Y20000D01*
Y19700D01*
Y20000D01*
X55797Y20100D01*
X55897Y20000D01*
Y19700D01*
X56097D02*
X56297D01*
X56197D01*
Y20100D01*
X56097D01*
X56597Y19700D02*
X56796D01*
X56697D01*
Y20300D01*
X56597D01*
X53098Y27500D02*
X53498D01*
X53298D01*
Y26900D01*
X53697Y27500D02*
Y26900D01*
Y27200D01*
X53797Y27300D01*
X53997D01*
X54097Y27200D01*
Y26900D01*
X54297D02*
X54497D01*
X54397D01*
Y27300D01*
X54297D01*
X55197D02*
X54897D01*
X54797Y27200D01*
Y27000D01*
X54897Y26900D01*
X55197D01*
X55397D02*
Y27500D01*
Y27100D02*
X55697Y27300D01*
X55397Y27100D02*
X55697Y26900D01*
X55997D02*
Y27300D01*
X56297D01*
X56397Y27200D01*
Y26900D01*
X56896D02*
X56697D01*
X56597Y27000D01*
Y27200D01*
X56697Y27300D01*
X56896D01*
X56996Y27200D01*
Y27100D01*
X56597D01*
X57196Y26900D02*
X57496D01*
X57596Y27000D01*
X57496Y27100D01*
X57296D01*
X57196Y27200D01*
X57296Y27300D01*
X57596D01*
X57796Y26900D02*
X58096D01*
X58196Y27000D01*
X58096Y27100D01*
X57896D01*
X57796Y27200D01*
X57896Y27300D01*
X58196D01*
X44900Y25000D02*
X44800Y25100D01*
X44600D01*
X44500Y25000D01*
Y24900D01*
X44600Y24800D01*
X44800D01*
X44900Y24700D01*
Y24600D01*
X44800Y24500D01*
X44600D01*
X44500Y24600D01*
X45200Y24500D02*
X45400D01*
X45500Y24600D01*
Y24800D01*
X45400Y24900D01*
X45200D01*
X45100Y24800D01*
Y24600D01*
X45200Y24500D01*
X45700D02*
X45900D01*
X45800D01*
Y25100D01*
X45700D01*
X46599D02*
Y24500D01*
X46299D01*
X46199Y24600D01*
Y24800D01*
X46299Y24900D01*
X46599D01*
X47099Y24500D02*
X46899D01*
X46799Y24600D01*
Y24800D01*
X46899Y24900D01*
X47099D01*
X47199Y24800D01*
Y24700D01*
X46799D01*
X47399Y24900D02*
Y24500D01*
Y24700D01*
X47499Y24800D01*
X47599Y24900D01*
X47699D01*
X48599Y24500D02*
Y25100D01*
X48899D01*
X48999Y25000D01*
Y24800D01*
X48899Y24700D01*
X48599D01*
X48799D02*
X48999Y24500D01*
X49498D02*
X49298D01*
X49198Y24600D01*
Y24800D01*
X49298Y24900D01*
X49498D01*
X49598Y24800D01*
Y24700D01*
X49198D01*
X49798Y24500D02*
X50098D01*
X50198Y24600D01*
X50098Y24700D01*
X49898D01*
X49798Y24800D01*
X49898Y24900D01*
X50198D01*
X50398Y24500D02*
X50598D01*
X50498D01*
Y24900D01*
X50398D01*
X50898Y24500D02*
X51198D01*
X51298Y24600D01*
X51198Y24700D01*
X50998D01*
X50898Y24800D01*
X50998Y24900D01*
X51298D01*
X51598Y25000D02*
Y24900D01*
X51498D01*
X51698D01*
X51598D01*
Y24600D01*
X51698Y24500D01*
X44900Y23800D02*
X44800Y23900D01*
X44600D01*
X44500Y23800D01*
Y23400D01*
X44600Y23300D01*
X44800D01*
X44900Y23400D01*
X45200Y23300D02*
X45400D01*
X45500Y23400D01*
Y23600D01*
X45400Y23700D01*
X45200D01*
X45100Y23600D01*
Y23400D01*
X45200Y23300D01*
X45700Y23100D02*
Y23700D01*
X46000D01*
X46099Y23600D01*
Y23400D01*
X46000Y23300D01*
X45700D01*
X46299Y23100D02*
Y23700D01*
X46599D01*
X46699Y23600D01*
Y23400D01*
X46599Y23300D01*
X46299D01*
X47199D02*
X46999D01*
X46899Y23400D01*
Y23600D01*
X46999Y23700D01*
X47199D01*
X47299Y23600D01*
Y23500D01*
X46899D01*
X47499Y23700D02*
Y23300D01*
Y23500D01*
X47599Y23600D01*
X47699Y23700D01*
X47799D01*
X44900Y22700D02*
X44500D01*
Y22400D01*
X44700D01*
X44500D01*
Y22100D01*
X45100D02*
Y22700D01*
X45400D01*
X45500Y22600D01*
Y22400D01*
X45400Y22300D01*
X45100D01*
X45300D02*
X45500Y22100D01*
X45700Y22400D02*
X46099D01*
X46599Y22100D02*
Y22700D01*
X46299Y22400D01*
X46699D01*
X44900Y21400D02*
X44800Y21500D01*
X44600D01*
X44500Y21400D01*
Y21000D01*
X44600Y20900D01*
X44800D01*
X44900Y21000D01*
X45200Y20900D02*
X45400D01*
X45500Y21000D01*
Y21200D01*
X45400Y21300D01*
X45200D01*
X45100Y21200D01*
Y21000D01*
X45200Y20900D01*
X45700Y20700D02*
Y21300D01*
X46000D01*
X46099Y21200D01*
Y21000D01*
X46000Y20900D01*
X45700D01*
X46299Y20700D02*
Y21300D01*
X46599D01*
X46699Y21200D01*
Y21000D01*
X46599Y20900D01*
X46299D01*
X47199D02*
X46999D01*
X46899Y21000D01*
Y21200D01*
X46999Y21300D01*
X47199D01*
X47299Y21200D01*
Y21100D01*
X46899D01*
X47499Y21300D02*
Y20900D01*
Y21100D01*
X47599Y21200D01*
X47699Y21300D01*
X47799D01*
X44900Y20200D02*
X44800Y20300D01*
X44600D01*
X44500Y20200D01*
Y20100D01*
X44600Y20000D01*
X44800D01*
X44900Y19900D01*
Y19800D01*
X44800Y19700D01*
X44600D01*
X44500Y19800D01*
X45200Y19700D02*
X45400D01*
X45500Y19800D01*
Y20000D01*
X45400Y20100D01*
X45200D01*
X45100Y20000D01*
Y19800D01*
X45200Y19700D01*
X45700D02*
X45900D01*
X45800D01*
Y20300D01*
X45700D01*
X46599D02*
Y19700D01*
X46299D01*
X46199Y19800D01*
Y20000D01*
X46299Y20100D01*
X46599D01*
X47099Y19700D02*
X46899D01*
X46799Y19800D01*
Y20000D01*
X46899Y20100D01*
X47099D01*
X47199Y20000D01*
Y19900D01*
X46799D01*
X47399Y20100D02*
Y19700D01*
Y19900D01*
X47499Y20000D01*
X47599Y20100D01*
X47699D01*
X48599Y19700D02*
Y20300D01*
X48899D01*
X48999Y20200D01*
Y20000D01*
X48899Y19900D01*
X48599D01*
X48799D02*
X48999Y19700D01*
X49498D02*
X49298D01*
X49198Y19800D01*
Y20000D01*
X49298Y20100D01*
X49498D01*
X49598Y20000D01*
Y19900D01*
X49198D01*
X49798Y19700D02*
X50098D01*
X50198Y19800D01*
X50098Y19900D01*
X49898D01*
X49798Y20000D01*
X49898Y20100D01*
X50198D01*
X50398Y19700D02*
X50598D01*
X50498D01*
Y20100D01*
X50398D01*
X50898Y19700D02*
X51198D01*
X51298Y19800D01*
X51198Y19900D01*
X50998D01*
X50898Y20000D01*
X50998Y20100D01*
X51298D01*
X51598Y20200D02*
Y20100D01*
X51498D01*
X51698D01*
X51598D01*
Y19800D01*
X51698Y19700D01*
X44500Y26900D02*
Y27500D01*
X44700Y27300D01*
X44900Y27500D01*
Y26900D01*
X45200Y27300D02*
X45400D01*
X45500Y27200D01*
Y26900D01*
X45200D01*
X45100Y27000D01*
X45200Y27100D01*
X45500D01*
X45800Y27400D02*
Y27300D01*
X45700D01*
X45900D01*
X45800D01*
Y27000D01*
X45900Y26900D01*
X46499D02*
X46299D01*
X46199Y27000D01*
Y27200D01*
X46299Y27300D01*
X46499D01*
X46599Y27200D01*
Y27100D01*
X46199D01*
X46799Y27300D02*
Y26900D01*
Y27100D01*
X46899Y27200D01*
X46999Y27300D01*
X47099D01*
X47399Y26900D02*
X47599D01*
X47499D01*
Y27300D01*
X47399D01*
X47999D02*
X48199D01*
X48299Y27200D01*
Y26900D01*
X47999D01*
X47899Y27000D01*
X47999Y27100D01*
X48299D01*
X48499Y26900D02*
X48699D01*
X48599D01*
Y27500D01*
X48499D01*
X35203Y26300D02*
X35602D01*
X35402D01*
Y25700D01*
X35902D02*
X36102D01*
X36202Y25800D01*
Y26000D01*
X36102Y26100D01*
X35902D01*
X35802Y26000D01*
Y25800D01*
X35902Y25700D01*
X36402Y25500D02*
Y26100D01*
X36702D01*
X36802Y26000D01*
Y25800D01*
X36702Y25700D01*
X36402D01*
X37902Y26300D02*
X37702D01*
X37602Y26200D01*
Y25800D01*
X37702Y25700D01*
X37902D01*
X38002Y25800D01*
Y26200D01*
X37902Y26300D01*
X38202Y26100D02*
X38402Y25700D01*
X38601Y26100D01*
X39101Y25700D02*
X38901D01*
X38801Y25800D01*
Y26000D01*
X38901Y26100D01*
X39101D01*
X39201Y26000D01*
Y25900D01*
X38801D01*
X39401Y26100D02*
Y25700D01*
Y25900D01*
X39501Y26000D01*
X39601Y26100D01*
X39701D01*
X40001Y25700D02*
X40201D01*
X40101D01*
Y26300D01*
X40001D01*
X40601Y26100D02*
X40801D01*
X40901Y26000D01*
Y25700D01*
X40601D01*
X40501Y25800D01*
X40601Y25900D01*
X40901D01*
X41101Y26100D02*
Y25800D01*
X41201Y25700D01*
X41501D01*
Y25600D01*
X41401Y25500D01*
X41301D01*
X41501Y25700D02*
Y26100D01*
X35203Y25100D02*
X35602D01*
X35402D01*
Y24500D01*
X35902D02*
X36102D01*
X36202Y24600D01*
Y24800D01*
X36102Y24900D01*
X35902D01*
X35802Y24800D01*
Y24600D01*
X35902Y24500D01*
X36402Y24300D02*
Y24900D01*
X36702D01*
X36802Y24800D01*
Y24600D01*
X36702Y24500D01*
X36402D01*
X38002Y25000D02*
X37902Y25100D01*
X37702D01*
X37602Y25000D01*
Y24900D01*
X37702Y24800D01*
X37902D01*
X38002Y24700D01*
Y24600D01*
X37902Y24500D01*
X37702D01*
X37602Y24600D01*
X38302Y24500D02*
X38501D01*
X38601Y24600D01*
Y24800D01*
X38501Y24900D01*
X38302D01*
X38202Y24800D01*
Y24600D01*
X38302Y24500D01*
X38801D02*
X39001D01*
X38901D01*
Y25100D01*
X38801D01*
X39701D02*
Y24500D01*
X39401D01*
X39301Y24600D01*
Y24800D01*
X39401Y24900D01*
X39701D01*
X40201Y24500D02*
X40001D01*
X39901Y24600D01*
Y24800D01*
X40001Y24900D01*
X40201D01*
X40301Y24800D01*
Y24700D01*
X39901D01*
X40501Y24900D02*
Y24500D01*
Y24700D01*
X40601Y24800D01*
X40701Y24900D01*
X40801D01*
X35203Y23900D02*
X35602D01*
X35402D01*
Y23300D01*
X35902D02*
X36102D01*
X36202Y23400D01*
Y23600D01*
X36102Y23700D01*
X35902D01*
X35802Y23600D01*
Y23400D01*
X35902Y23300D01*
X36402Y23100D02*
Y23700D01*
X36702D01*
X36802Y23600D01*
Y23400D01*
X36702Y23300D01*
X36402D01*
X37602Y23900D02*
Y23300D01*
X38002D01*
X38302Y23700D02*
X38501D01*
X38601Y23600D01*
Y23300D01*
X38302D01*
X38202Y23400D01*
X38302Y23500D01*
X38601D01*
X38801Y23700D02*
Y23400D01*
X38901Y23300D01*
X39201D01*
Y23200D01*
X39101Y23100D01*
X39001D01*
X39201Y23300D02*
Y23700D01*
X39701Y23300D02*
X39501D01*
X39401Y23400D01*
Y23600D01*
X39501Y23700D01*
X39701D01*
X39801Y23600D01*
Y23500D01*
X39401D01*
X40001Y23700D02*
Y23300D01*
Y23500D01*
X40101Y23600D01*
X40201Y23700D01*
X40301D01*
X35203Y22700D02*
Y22100D01*
X35502D01*
X35602Y22200D01*
Y22600D01*
X35502Y22700D01*
X35203D01*
X35802Y22100D02*
X36002D01*
X35902D01*
Y22500D01*
X35802D01*
X36602Y22100D02*
X36402D01*
X36302Y22200D01*
Y22400D01*
X36402Y22500D01*
X36602D01*
X36702Y22400D01*
Y22300D01*
X36302D01*
X36902Y22100D02*
X37102D01*
X37002D01*
Y22700D01*
X36902D01*
X37702Y22100D02*
X37502D01*
X37402Y22200D01*
Y22400D01*
X37502Y22500D01*
X37702D01*
X37802Y22400D01*
Y22300D01*
X37402D01*
X38402Y22500D02*
X38102D01*
X38002Y22400D01*
Y22200D01*
X38102Y22100D01*
X38402D01*
X38701Y22600D02*
Y22500D01*
X38601D01*
X38801D01*
X38701D01*
Y22200D01*
X38801Y22100D01*
X39101Y22500D02*
Y22100D01*
Y22300D01*
X39201Y22400D01*
X39301Y22500D01*
X39401D01*
X39701Y22100D02*
X39901D01*
X39801D01*
Y22500D01*
X39701D01*
X40601D02*
X40301D01*
X40201Y22400D01*
Y22200D01*
X40301Y22100D01*
X40601D01*
X41401D02*
X41600D01*
X41501D01*
Y22700D01*
X41401Y22600D01*
X35203Y21500D02*
Y20900D01*
X35502D01*
X35602Y21000D01*
Y21100D01*
X35502Y21200D01*
X35203D01*
X35502D01*
X35602Y21300D01*
Y21400D01*
X35502Y21500D01*
X35203D01*
X35902Y20900D02*
X36102D01*
X36202Y21000D01*
Y21200D01*
X36102Y21300D01*
X35902D01*
X35802Y21200D01*
Y21000D01*
X35902Y20900D01*
X36502Y21400D02*
Y21300D01*
X36402D01*
X36602D01*
X36502D01*
Y21000D01*
X36602Y20900D01*
X37002Y21400D02*
Y21300D01*
X36902D01*
X37102D01*
X37002D01*
Y21000D01*
X37102Y20900D01*
X37502D02*
X37702D01*
X37802Y21000D01*
Y21200D01*
X37702Y21300D01*
X37502D01*
X37402Y21200D01*
Y21000D01*
X37502Y20900D01*
X38002D02*
Y21300D01*
X38102D01*
X38202Y21200D01*
Y20900D01*
Y21200D01*
X38302Y21300D01*
X38402Y21200D01*
Y20900D01*
X39201Y21500D02*
Y20900D01*
X39601D01*
X39901Y21300D02*
X40101D01*
X40201Y21200D01*
Y20900D01*
X39901D01*
X39801Y21000D01*
X39901Y21100D01*
X40201D01*
X40401Y21300D02*
Y21000D01*
X40501Y20900D01*
X40801D01*
Y20800D01*
X40701Y20700D01*
X40601D01*
X40801Y20900D02*
Y21300D01*
X41301Y20900D02*
X41101D01*
X41001Y21000D01*
Y21200D01*
X41101Y21300D01*
X41301D01*
X41401Y21200D01*
Y21100D01*
X41001D01*
X41600Y21300D02*
Y20900D01*
Y21100D01*
X41700Y21200D01*
X41800Y21300D01*
X41900D01*
X35203Y20300D02*
Y19700D01*
X35502D01*
X35602Y19800D01*
Y19900D01*
X35502Y20000D01*
X35203D01*
X35502D01*
X35602Y20100D01*
Y20200D01*
X35502Y20300D01*
X35203D01*
X35902Y19700D02*
X36102D01*
X36202Y19800D01*
Y20000D01*
X36102Y20100D01*
X35902D01*
X35802Y20000D01*
Y19800D01*
X35902Y19700D01*
X36502Y20200D02*
Y20100D01*
X36402D01*
X36602D01*
X36502D01*
Y19800D01*
X36602Y19700D01*
X37002Y20200D02*
Y20100D01*
X36902D01*
X37102D01*
X37002D01*
Y19800D01*
X37102Y19700D01*
X37502D02*
X37702D01*
X37802Y19800D01*
Y20000D01*
X37702Y20100D01*
X37502D01*
X37402Y20000D01*
Y19800D01*
X37502Y19700D01*
X38002D02*
Y20100D01*
X38102D01*
X38202Y20000D01*
Y19700D01*
Y20000D01*
X38302Y20100D01*
X38402Y20000D01*
Y19700D01*
X39601Y20200D02*
X39501Y20300D01*
X39301D01*
X39201Y20200D01*
Y20100D01*
X39301Y20000D01*
X39501D01*
X39601Y19900D01*
Y19800D01*
X39501Y19700D01*
X39301D01*
X39201Y19800D01*
X39901Y19700D02*
X40101D01*
X40201Y19800D01*
Y20000D01*
X40101Y20100D01*
X39901D01*
X39801Y20000D01*
Y19800D01*
X39901Y19700D01*
X40401D02*
X40601D01*
X40501D01*
Y20300D01*
X40401D01*
X41301D02*
Y19700D01*
X41001D01*
X40901Y19800D01*
Y20000D01*
X41001Y20100D01*
X41301D01*
X41800Y19700D02*
X41600D01*
X41501Y19800D01*
Y20000D01*
X41600Y20100D01*
X41800D01*
X41900Y20000D01*
Y19900D01*
X41501D01*
X42100Y20100D02*
Y19700D01*
Y19900D01*
X42200Y20000D01*
X42300Y20100D01*
X42400D01*
X35203Y19100D02*
Y18500D01*
X35502D01*
X35602Y18600D01*
Y18700D01*
X35502Y18800D01*
X35203D01*
X35502D01*
X35602Y18900D01*
Y19000D01*
X35502Y19100D01*
X35203D01*
X35902Y18500D02*
X36102D01*
X36202Y18600D01*
Y18800D01*
X36102Y18900D01*
X35902D01*
X35802Y18800D01*
Y18600D01*
X35902Y18500D01*
X36502Y19000D02*
Y18900D01*
X36402D01*
X36602D01*
X36502D01*
Y18600D01*
X36602Y18500D01*
X37002Y19000D02*
Y18900D01*
X36902D01*
X37102D01*
X37002D01*
Y18600D01*
X37102Y18500D01*
X37502D02*
X37702D01*
X37802Y18600D01*
Y18800D01*
X37702Y18900D01*
X37502D01*
X37402Y18800D01*
Y18600D01*
X37502Y18500D01*
X38002D02*
Y18900D01*
X38102D01*
X38202Y18800D01*
Y18500D01*
Y18800D01*
X38302Y18900D01*
X38402Y18800D01*
Y18500D01*
X39501Y19100D02*
X39301D01*
X39201Y19000D01*
Y18600D01*
X39301Y18500D01*
X39501D01*
X39601Y18600D01*
Y19000D01*
X39501Y19100D01*
X39801Y18900D02*
X40001Y18500D01*
X40201Y18900D01*
X40701Y18500D02*
X40501D01*
X40401Y18600D01*
Y18800D01*
X40501Y18900D01*
X40701D01*
X40801Y18800D01*
Y18700D01*
X40401D01*
X41001Y18900D02*
Y18500D01*
Y18700D01*
X41101Y18800D01*
X41201Y18900D01*
X41301D01*
X41600Y18500D02*
X41800D01*
X41700D01*
Y19100D01*
X41600D01*
X42200Y18900D02*
X42400D01*
X42500Y18800D01*
Y18500D01*
X42200D01*
X42100Y18600D01*
X42200Y18700D01*
X42500D01*
X42700Y18900D02*
Y18600D01*
X42800Y18500D01*
X43100D01*
Y18400D01*
X43000Y18300D01*
X42900D01*
X43100Y18500D02*
Y18900D01*
X35203Y26900D02*
Y27500D01*
X35602Y26900D01*
Y27500D01*
X35902Y27300D02*
X36102D01*
X36202Y27200D01*
Y26900D01*
X35902D01*
X35802Y27000D01*
X35902Y27100D01*
X36202D01*
X36402Y26900D02*
Y27300D01*
X36502D01*
X36602Y27200D01*
Y26900D01*
Y27200D01*
X36702Y27300D01*
X36802Y27200D01*
Y26900D01*
X37302D02*
X37102D01*
X37002Y27000D01*
Y27200D01*
X37102Y27300D01*
X37302D01*
X37402Y27200D01*
Y27100D01*
X37002D01*
X31103Y25700D02*
X31303D01*
X31203D01*
Y26300D01*
X31103Y26200D01*
X31503Y24500D02*
X31103D01*
X31503Y24900D01*
Y25000D01*
X31403Y25100D01*
X31203D01*
X31103Y25000D01*
Y23800D02*
X31203Y23900D01*
X31403D01*
X31503Y23800D01*
Y23700D01*
X31403Y23600D01*
X31303D01*
X31403D01*
X31503Y23500D01*
Y23400D01*
X31403Y23300D01*
X31203D01*
X31103Y23400D01*
X31403Y22100D02*
Y22700D01*
X31103Y22400D01*
X31503D01*
Y21500D02*
X31103D01*
Y21200D01*
X31303Y21300D01*
X31403D01*
X31503Y21200D01*
Y21000D01*
X31403Y20900D01*
X31203D01*
X31103Y21000D01*
X31503Y20300D02*
X31303Y20200D01*
X31103Y20000D01*
Y19800D01*
X31203Y19700D01*
X31403D01*
X31503Y19800D01*
Y19900D01*
X31403Y20000D01*
X31103D01*
Y19100D02*
X31503D01*
Y19000D01*
X31103Y18600D01*
Y18500D01*
Y27500D02*
Y26900D01*
X31503D01*
X31803Y27300D02*
X32003D01*
X32103Y27200D01*
Y26900D01*
X31803D01*
X31703Y27000D01*
X31803Y27100D01*
X32103D01*
X32303Y27300D02*
Y27000D01*
X32403Y26900D01*
X32703D01*
Y26800D01*
X32603Y26700D01*
X32503D01*
X32703Y26900D02*
Y27300D01*
X33203Y26900D02*
X33003D01*
X32903Y27000D01*
Y27200D01*
X33003Y27300D01*
X33203D01*
X33303Y27200D01*
Y27100D01*
X32903D01*
X33503Y27300D02*
Y26900D01*
Y27100D01*
X33603Y27200D01*
X33703Y27300D01*
X33803D01*
D16*
X12331Y-660D02*
X12131Y-760D01*
X11932Y-960D01*
Y-1160D01*
X12031Y-1260D01*
X12231D01*
X12331Y-1160D01*
Y-1060D01*
X12231Y-960D01*
X11932D01*
X12531Y-760D02*
X12631Y-660D01*
X12831D01*
X12931Y-760D01*
Y-860D01*
X12831Y-960D01*
X12931Y-1060D01*
Y-1160D01*
X12831Y-1260D01*
X12631D01*
X12531Y-1160D01*
Y-1060D01*
X12631Y-960D01*
X12531Y-860D01*
Y-760D01*
X12631Y-960D02*
X12831D01*
X13231Y-1360D02*
X13331Y-1260D01*
Y-1160D01*
X13231D01*
Y-1260D01*
X13331D01*
X13231Y-1360D01*
X13131Y-1460D01*
X14131Y-660D02*
X13731D01*
Y-960D01*
X13931Y-860D01*
X14031D01*
X14131Y-960D01*
Y-1160D01*
X14031Y-1260D01*
X13831D01*
X13731Y-1160D01*
X14631Y-1260D02*
Y-660D01*
X14331Y-960D01*
X14731D01*
D77*
X25383Y20984D02*
X25982Y20384D01*
Y15886D02*
Y20384D01*
Y15886D02*
X26982Y14886D01*
Y1999D02*
Y14886D01*
X25982Y1000D02*
X26982Y1999D01*
X25982Y392D02*
Y1000D01*
X25966Y292D02*
X25982Y392D01*
X25933Y200D02*
X25966Y292D01*
X25866Y117D02*
X25933Y200D01*
X25783Y50D02*
X25866Y117D01*
X25691Y17D02*
X25783Y50D01*
X25591Y0D02*
X25691Y17D01*
X392Y0D02*
X25591D01*
X292Y17D02*
X392Y0D01*
X200Y50D02*
X292Y17D01*
X117Y117D02*
X200Y50D01*
X50Y200D02*
X117Y117D01*
X17Y292D02*
X50Y200D01*
X0Y392D02*
X17Y292D01*
X0Y392D02*
Y20584D01*
X17Y20693D01*
X50Y20784D01*
X117Y20868D01*
X200Y20926D01*
X292Y20968D01*
X392Y20984D01*
X25383D01*
D78*
X75891Y18200D02*
Y27800D01*
X64695Y25400D02*
X75891D01*
X64695Y24200D02*
X75891D01*
X64695Y23000D02*
X75891D01*
X64695Y21800D02*
X75891D01*
X64695Y20600D02*
X75891D01*
X64695Y19400D02*
X75891D01*
X64695Y18200D02*
X75891D01*
X64695D02*
Y27800D01*
X58996Y25400D02*
X64695D01*
X58996Y24200D02*
X64695D01*
X58996Y23000D02*
X64695D01*
X58996Y21800D02*
X64695D01*
X58996Y20600D02*
X64695D01*
X58996Y19400D02*
X64695D01*
X58996Y18200D02*
X64695D01*
X58996D02*
Y27800D01*
X52498Y25400D02*
X58996D01*
X52498Y24200D02*
X58996D01*
X52498Y23000D02*
X58996D01*
X52498Y21800D02*
X58996D01*
X52498Y20600D02*
X58996D01*
X52498Y19400D02*
X58996D01*
X52498Y18200D02*
X58996D01*
X52498D02*
Y27800D01*
X43900Y25400D02*
X52498D01*
X43900Y24200D02*
X52498D01*
X43900Y23000D02*
X52498D01*
X43900Y21800D02*
X52498D01*
X43900Y20600D02*
X52498D01*
X43900Y19400D02*
X52498D01*
X43900Y18200D02*
X52498D01*
X43900D02*
Y27800D01*
X34603Y25400D02*
X43900D01*
X34603Y24200D02*
X43900D01*
X34603Y23000D02*
X43900D01*
X34603Y21800D02*
X43900D01*
X34603Y20600D02*
X43900D01*
X34603Y19400D02*
X43900D01*
X34603Y18200D02*
X43900D01*
X34603D02*
Y27800D01*
X30503Y25400D02*
X34603D01*
X30503Y24200D02*
X34603D01*
X30503Y23000D02*
X34603D01*
X30503Y21800D02*
X34603D01*
X30503Y20600D02*
X34603D01*
X30503Y19400D02*
X34603D01*
X30503Y18200D02*
X34603D01*
X30503D02*
Y27800D01*
X75891D01*
X30503Y26600D02*
X75891D01*
D79*
X64695Y26203D02*
X65091Y26600D01*
X64695Y25603D02*
X65691Y26600D01*
X65091Y25400D02*
X66291Y26600D01*
X65691Y25400D02*
X66891Y26600D01*
X66291Y25400D02*
X67491Y26600D01*
X66891Y25400D02*
X68091Y26600D01*
X67491Y25400D02*
X68691Y26600D01*
X68091Y25400D02*
X69291Y26600D01*
X68691Y25400D02*
X69891Y26600D01*
X69291Y25400D02*
X70491Y26600D01*
X69891Y25400D02*
X71091Y26600D01*
X70491Y25400D02*
X71691Y26600D01*
X71091Y25400D02*
X72291Y26600D01*
X71691Y25400D02*
X72891Y26600D01*
X72291Y25400D02*
X73491Y26600D01*
X72891Y25400D02*
X74091Y26600D01*
X73491Y25400D02*
X74691Y26600D01*
X74091Y25400D02*
X75291Y26600D01*
X74691Y25400D02*
X75891Y26600D01*
X75291Y25400D02*
X75891Y26000D01*
X64695Y25003D02*
X65091Y25400D01*
X64695Y24403D02*
X65691Y25400D01*
X65091Y24200D02*
X66291Y25400D01*
X65691Y24200D02*
X66891Y25400D01*
X66291Y24200D02*
X67491Y25400D01*
X66891Y24200D02*
X68091Y25400D01*
X67491Y24200D02*
X68691Y25400D01*
X68091Y24200D02*
X69291Y25400D01*
X68691Y24200D02*
X69891Y25400D01*
X69291Y24200D02*
X70491Y25400D01*
X69891Y24200D02*
X71091Y25400D01*
X70491Y24200D02*
X71691Y25400D01*
X71091Y24200D02*
X72291Y25400D01*
X71691Y24200D02*
X72891Y25400D01*
X72291Y24200D02*
X73491Y25400D01*
X72891Y24200D02*
X74091Y25400D01*
X73491Y24200D02*
X74691Y25400D01*
X74091Y24200D02*
X75291Y25400D01*
X74691Y24200D02*
X75891Y25400D01*
X75291Y24200D02*
X75891Y24800D01*
X64695Y23803D02*
X65091Y24200D01*
X64695Y23203D02*
X65691Y24200D01*
X65091Y23000D02*
X66291Y24200D01*
X65691Y23000D02*
X66891Y24200D01*
X66291Y23000D02*
X67491Y24200D01*
X66891Y23000D02*
X68091Y24200D01*
X67491Y23000D02*
X68691Y24200D01*
X68091Y23000D02*
X69291Y24200D01*
X68691Y23000D02*
X69891Y24200D01*
X69291Y23000D02*
X70491Y24200D01*
X69891Y23000D02*
X71091Y24200D01*
X70491Y23000D02*
X71691Y24200D01*
X71091Y23000D02*
X72291Y24200D01*
X71691Y23000D02*
X72891Y24200D01*
X72291Y23000D02*
X73491Y24200D01*
X72891Y23000D02*
X74091Y24200D01*
X73491Y23000D02*
X74691Y24200D01*
X74091Y23000D02*
X75291Y24200D01*
X74691Y23000D02*
X75891Y24200D01*
X75291Y23000D02*
X75891Y23600D01*
X64695Y22603D02*
X65091Y23000D01*
X64695Y22003D02*
X65691Y23000D01*
X65091Y21800D02*
X66291Y23000D01*
X65691Y21800D02*
X66891Y23000D01*
X66291Y21800D02*
X67491Y23000D01*
X66891Y21800D02*
X68091Y23000D01*
X67491Y21800D02*
X68691Y23000D01*
X68091Y21800D02*
X69291Y23000D01*
X68691Y21800D02*
X69891Y23000D01*
X69291Y21800D02*
X70491Y23000D01*
X69891Y21800D02*
X71091Y23000D01*
X70491Y21800D02*
X71691Y23000D01*
X71091Y21800D02*
X72291Y23000D01*
X71691Y21800D02*
X72891Y23000D01*
X72291Y21800D02*
X73491Y23000D01*
X72891Y21800D02*
X74091Y23000D01*
X73491Y21800D02*
X74691Y23000D01*
X74091Y21800D02*
X75291Y23000D01*
X74691Y21800D02*
X75891Y23000D01*
X75291Y21800D02*
X75891Y22400D01*
X64695Y21403D02*
X65091Y21800D01*
X64695Y20803D02*
X65691Y21800D01*
X65091Y20600D02*
X66291Y21800D01*
X65691Y20600D02*
X66891Y21800D01*
X66291Y20600D02*
X67491Y21800D01*
X66891Y20600D02*
X68091Y21800D01*
X67491Y20600D02*
X68691Y21800D01*
X68091Y20600D02*
X69291Y21800D01*
X68691Y20600D02*
X69891Y21800D01*
X69291Y20600D02*
X70491Y21800D01*
X69891Y20600D02*
X71091Y21800D01*
X70491Y20600D02*
X71691Y21800D01*
X71091Y20600D02*
X72291Y21800D01*
X71691Y20600D02*
X72891Y21800D01*
X72291Y20600D02*
X73491Y21800D01*
X72891Y20600D02*
X74091Y21800D01*
X73491Y20600D02*
X74691Y21800D01*
X74091Y20600D02*
X75291Y21800D01*
X74691Y20600D02*
X75891Y21800D01*
X75291Y20600D02*
X75891Y21200D01*
X64695Y20203D02*
X65091Y20600D01*
X64695Y19603D02*
X65691Y20600D01*
X65091Y19400D02*
X66291Y20600D01*
X65691Y19400D02*
X66891Y20600D01*
X66291Y19400D02*
X67491Y20600D01*
X66891Y19400D02*
X68091Y20600D01*
X67491Y19400D02*
X68691Y20600D01*
X68091Y19400D02*
X69291Y20600D01*
X68691Y19400D02*
X69891Y20600D01*
X69291Y19400D02*
X70491Y20600D01*
X69891Y19400D02*
X71091Y20600D01*
X70491Y19400D02*
X71691Y20600D01*
X71091Y19400D02*
X72291Y20600D01*
X71691Y19400D02*
X72891Y20600D01*
X72291Y19400D02*
X73491Y20600D01*
X72891Y19400D02*
X74091Y20600D01*
X73491Y19400D02*
X74691Y20600D01*
X74091Y19400D02*
X75291Y20600D01*
X74691Y19400D02*
X75891Y20600D01*
X75291Y19400D02*
X75891Y20000D01*
X64695Y19003D02*
X65091Y19400D01*
X64695Y18403D02*
X65691Y19400D01*
X65091Y18200D02*
X66291Y19400D01*
X65691Y18200D02*
X66891Y19400D01*
X66291Y18200D02*
X67491Y19400D01*
X66891Y18200D02*
X68091Y19400D01*
X67491Y18200D02*
X68691Y19400D01*
X68091Y18200D02*
X69291Y19400D01*
X68691Y18200D02*
X69891Y19400D01*
X69291Y18200D02*
X70491Y19400D01*
X69891Y18200D02*
X71091Y19400D01*
X70491Y18200D02*
X71691Y19400D01*
X71091Y18200D02*
X72291Y19400D01*
X71691Y18200D02*
X72891Y19400D01*
X72291Y18200D02*
X73491Y19400D01*
X72891Y18200D02*
X74091Y19400D01*
X73491Y18200D02*
X74691Y19400D01*
X74091Y18200D02*
X75291Y19400D01*
X74691Y18200D02*
X75891Y19400D01*
X75291Y18200D02*
X75891Y18800D01*
M02*
