G04*
G04 #@! TF.GenerationSoftware,Altium Limited,Altium Designer,18.1.9 (240)*
G04*
G04 Layer_Color=32896*
%FSLAX24Y24*%
%MOIN*%
G70*
G01*
G75*
%ADD14C,0.0079*%
D14*
X944Y8674D02*
X1456D01*
X15244Y15574D02*
X15756D01*
X8643Y15335D02*
X8957D01*
X8643Y17604D02*
X8957D01*
X1843Y7265D02*
X2157D01*
X8243Y2669D02*
X8557D01*
X18843Y6804D02*
X19157D01*
X1328Y6414D02*
X1394Y6349D01*
Y6218D01*
X1328Y6152D01*
X1066D01*
X1000Y6218D01*
Y6349D01*
X1066Y6414D01*
X1000Y6546D02*
Y6677D01*
Y6611D01*
X1394D01*
X1328Y6546D01*
X1000Y6874D02*
Y7005D01*
Y6939D01*
X1394D01*
X1328Y6874D01*
X9938Y14459D02*
X10003Y14524D01*
X10134D01*
X10200Y14459D01*
Y14196D01*
X10134Y14131D01*
X10003D01*
X9938Y14196D01*
X9806Y14131D02*
X9675D01*
X9741D01*
Y14524D01*
X9806Y14459D01*
X9216Y14524D02*
X9347Y14459D01*
X9478Y14327D01*
Y14196D01*
X9413Y14131D01*
X9282D01*
X9216Y14196D01*
Y14262D01*
X9282Y14327D01*
X9478D01*
X9938Y17028D02*
X10003Y17094D01*
X10134D01*
X10200Y17028D01*
Y16766D01*
X10134Y16700D01*
X10003D01*
X9938Y16766D01*
X9806Y16700D02*
X9675D01*
X9741D01*
Y17094D01*
X9806Y17028D01*
X9216Y17094D02*
X9478D01*
Y16897D01*
X9347Y16962D01*
X9282D01*
X9216Y16897D01*
Y16766D01*
X9282Y16700D01*
X9413D01*
X9478Y16766D01*
X1972Y9638D02*
X1906Y9703D01*
Y9834D01*
X1972Y9900D01*
X2234D01*
X2300Y9834D01*
Y9703D01*
X2234Y9638D01*
X2300Y9506D02*
Y9375D01*
Y9441D01*
X1906D01*
X1972Y9506D01*
Y9178D02*
X1906Y9113D01*
Y8982D01*
X1972Y8916D01*
X2234D01*
X2300Y8982D01*
Y9113D01*
X2234Y9178D01*
X1972D01*
X14828Y14662D02*
X14894Y14597D01*
Y14466D01*
X14828Y14400D01*
X14566D01*
X14500Y14466D01*
Y14597D01*
X14566Y14662D01*
X14828Y14794D02*
X14894Y14859D01*
Y14990D01*
X14828Y15056D01*
X14762D01*
X14697Y14990D01*
X14631Y15056D01*
X14566D01*
X14500Y14990D01*
Y14859D01*
X14566Y14794D01*
X14631D01*
X14697Y14859D01*
X14762Y14794D01*
X14828D01*
X14697Y14859D02*
Y14990D01*
X8298Y3312D02*
X8364Y3378D01*
X8495D01*
X8560Y3312D01*
Y3050D01*
X8495Y2984D01*
X8364D01*
X8298Y3050D01*
X7970Y2984D02*
Y3378D01*
X8167Y3181D01*
X7904D01*
X18238Y6428D02*
X18303Y6494D01*
X18434D01*
X18500Y6428D01*
Y6166D01*
X18434Y6100D01*
X18303D01*
X18238Y6166D01*
X18106Y6100D02*
X17975D01*
X18041D01*
Y6494D01*
X18106Y6428D01*
M02*
