G04*
G04 #@! TF.GenerationSoftware,Altium Limited,Altium Designer,18.1.9 (240)*
G04*
G04 Layer_Color=255*
%FSLAX24Y24*%
%MOIN*%
G70*
G01*
G75*
%ADD17R,0.0394X0.0433*%
%ADD18R,0.0433X0.0394*%
%ADD19R,0.0335X0.0512*%
%ADD20R,0.0591X0.0177*%
%ADD21R,0.0512X0.0591*%
%ADD22R,0.0709X0.0551*%
%ADD23R,0.0591X0.1260*%
%ADD24R,0.0945X0.1299*%
%ADD25R,0.0945X0.0394*%
%ADD26R,0.1043X0.0689*%
%ADD27R,0.0295X0.1181*%
%ADD28R,0.0610X0.0512*%
%ADD29O,0.0886X0.0157*%
%ADD30R,0.2165X0.0787*%
%ADD31R,0.0394X0.0945*%
%ADD32R,0.1299X0.0945*%
%ADD63C,0.1299*%
%ADD64C,0.0630*%
%ADD65R,0.0630X0.0630*%
%ADD66C,0.0600*%
%ADD67C,0.1575*%
%ADD68C,0.0591*%
%ADD69R,0.0591X0.0591*%
%ADD70R,0.0630X0.0630*%
%ADD71R,0.0591X0.0591*%
%ADD72O,0.1378X0.1181*%
%ADD73O,0.1378X0.1575*%
D17*
X12400Y14635D02*
D03*
Y13965D02*
D03*
X17500Y15969D02*
D03*
Y15300D02*
D03*
Y14400D02*
D03*
Y13731D02*
D03*
X10400Y9565D02*
D03*
Y10235D02*
D03*
X8600D02*
D03*
Y9565D02*
D03*
X10800Y15000D02*
D03*
Y15669D02*
D03*
X5600Y7065D02*
D03*
Y7735D02*
D03*
X4600Y7100D02*
D03*
Y7769D02*
D03*
X4600Y20383D02*
D03*
Y19714D02*
D03*
X18400Y15935D02*
D03*
Y15265D02*
D03*
D18*
X12365Y15600D02*
D03*
X13035D02*
D03*
X11400Y18100D02*
D03*
X12069D02*
D03*
X16335Y16100D02*
D03*
X15665D02*
D03*
X15465Y13500D02*
D03*
X16135D02*
D03*
X11365Y17300D02*
D03*
X12035D02*
D03*
X10369Y17600D02*
D03*
X9700D02*
D03*
X10369Y18300D02*
D03*
X9700D02*
D03*
X12035Y10200D02*
D03*
X11365D02*
D03*
X10000Y13000D02*
D03*
X10669D02*
D03*
X1600Y5500D02*
D03*
X931D02*
D03*
X8265Y13000D02*
D03*
X8935D02*
D03*
X3335Y5500D02*
D03*
X2665D02*
D03*
X6600Y17500D02*
D03*
X5931D02*
D03*
X6600Y14800D02*
D03*
X5931D02*
D03*
X5831Y15600D02*
D03*
X6500D02*
D03*
X5831Y16600D02*
D03*
X6500D02*
D03*
X13100Y3600D02*
D03*
X13769D02*
D03*
X18900Y3700D02*
D03*
X18231D02*
D03*
X14900Y8800D02*
D03*
X15569D02*
D03*
X17100D02*
D03*
X16431D02*
D03*
D19*
X16000Y17833D02*
D03*
X16374Y16967D02*
D03*
X15626D02*
D03*
X10300Y11267D02*
D03*
X9926Y12133D02*
D03*
X10674D02*
D03*
X8600Y11267D02*
D03*
X8226Y12133D02*
D03*
X8974D02*
D03*
D20*
X16342Y15184D02*
D03*
Y14928D02*
D03*
Y14672D02*
D03*
Y14416D02*
D03*
X14058D02*
D03*
Y14672D02*
D03*
Y14928D02*
D03*
Y15184D02*
D03*
D21*
X16374Y12100D02*
D03*
X15626D02*
D03*
D22*
X9700Y6731D02*
D03*
Y8069D02*
D03*
D23*
X5073Y13000D02*
D03*
X6727D02*
D03*
D24*
X858Y7800D02*
D03*
D25*
X3142Y8706D02*
D03*
Y7800D02*
D03*
Y6894D02*
D03*
D26*
X5754Y4800D02*
D03*
X7446D02*
D03*
D27*
X7700Y3000D02*
D03*
Y1000D02*
D03*
D28*
X3665Y18709D02*
D03*
X535D02*
D03*
Y20481D02*
D03*
X3665D02*
D03*
D29*
X7865Y16525D02*
D03*
Y16275D02*
D03*
Y16025D02*
D03*
Y15775D02*
D03*
Y15525D02*
D03*
Y15275D02*
D03*
Y15025D02*
D03*
Y14775D02*
D03*
Y14525D02*
D03*
Y14275D02*
D03*
X9735Y16525D02*
D03*
Y16275D02*
D03*
Y16025D02*
D03*
Y15775D02*
D03*
Y15525D02*
D03*
Y15275D02*
D03*
Y15025D02*
D03*
Y14775D02*
D03*
Y14525D02*
D03*
Y14275D02*
D03*
D30*
X14130Y10400D02*
D03*
X17870D02*
D03*
D31*
X6594Y6258D02*
D03*
X7500D02*
D03*
X8406D02*
D03*
D32*
X7500Y8542D02*
D03*
D63*
X6000Y20000D02*
D03*
X26000Y14000D02*
D03*
Y3000D02*
D03*
X5500Y1000D02*
D03*
D64*
X18000D02*
D03*
X17000D02*
D03*
X16000D02*
D03*
X15000D02*
D03*
X14000D02*
D03*
X13000D02*
D03*
X12000D02*
D03*
X5900Y11000D02*
D03*
X4900D02*
D03*
X3900D02*
D03*
X2900D02*
D03*
X1900D02*
D03*
X25000Y1000D02*
D03*
X24000D02*
D03*
X23000D02*
D03*
X22000D02*
D03*
X21000D02*
D03*
X26000Y12000D02*
D03*
X25000Y11000D02*
D03*
X26000D02*
D03*
X25000Y10000D02*
D03*
X26000D02*
D03*
X18000Y20000D02*
D03*
X19000D02*
D03*
X20000D02*
D03*
X21000D02*
D03*
X22000D02*
D03*
X23000D02*
D03*
X24000D02*
D03*
D65*
X11000Y1000D02*
D03*
X900Y11000D02*
D03*
X20000Y1000D02*
D03*
X25000Y20000D02*
D03*
D66*
X3614Y14578D02*
D03*
Y15562D02*
D03*
X2827Y14578D02*
D03*
Y15562D02*
D03*
X1760Y17440D02*
D03*
D67*
Y12700D02*
D03*
Y17440D02*
D03*
D68*
X12000Y4700D02*
D03*
X13000D02*
D03*
X14000D02*
D03*
X15000D02*
D03*
X16000D02*
D03*
X17000D02*
D03*
X18000D02*
D03*
X19000D02*
D03*
X20000D02*
D03*
X21000D02*
D03*
X22000D02*
D03*
X23000D02*
D03*
X24000D02*
D03*
X25000D02*
D03*
X12000Y7700D02*
D03*
X13000D02*
D03*
X14000D02*
D03*
X15000D02*
D03*
X16000D02*
D03*
X17000D02*
D03*
X18000D02*
D03*
X19000D02*
D03*
X20000D02*
D03*
X21000D02*
D03*
X22000D02*
D03*
X23000D02*
D03*
X24000D02*
D03*
X9400Y20007D02*
D03*
X16400D02*
D03*
X15400D02*
D03*
X14400D02*
D03*
X13400D02*
D03*
X12400D02*
D03*
X11400D02*
D03*
X10400D02*
D03*
X8400D02*
D03*
D69*
X25000Y7700D02*
D03*
D70*
Y12000D02*
D03*
D71*
X7400Y20007D02*
D03*
D72*
X3134Y1031D02*
D03*
D73*
X1953Y3000D02*
D03*
X4394D02*
D03*
M02*
