G04*
G04 #@! TF.GenerationSoftware,Altium Limited,Altium Designer,18.1.9 (240)*
G04*
G04 Layer_Physical_Order=1*
G04 Layer_Color=255*
%FSLAX24Y24*%
%MOIN*%
G70*
G01*
G75*
%ADD11C,0.0100*%
%ADD12C,0.0157*%
%ADD14C,0.0079*%
%ADD17R,0.0394X0.0433*%
%ADD18R,0.0433X0.0394*%
%ADD19R,0.0335X0.0512*%
%ADD20R,0.0591X0.0177*%
%ADD21R,0.0512X0.0591*%
%ADD22R,0.0709X0.0551*%
%ADD23R,0.0591X0.1260*%
%ADD24R,0.0945X0.1299*%
%ADD25R,0.0945X0.0394*%
%ADD26R,0.1043X0.0689*%
%ADD27R,0.0295X0.1181*%
%ADD28R,0.0610X0.0512*%
%ADD29O,0.0886X0.0157*%
%ADD30R,0.2165X0.0787*%
%ADD31R,0.0394X0.0945*%
%ADD32R,0.1299X0.0945*%
%ADD61C,0.0394*%
%ADD62C,0.0197*%
%ADD63C,0.1299*%
%ADD64C,0.0630*%
%ADD65R,0.0630X0.0630*%
%ADD66C,0.0600*%
%ADD67C,0.1575*%
%ADD68C,0.0591*%
%ADD69R,0.0591X0.0591*%
%ADD70R,0.0630X0.0630*%
%ADD71R,0.0591X0.0591*%
%ADD72O,0.1378X0.1181*%
%ADD73O,0.1378X0.1575*%
%ADD74C,0.0240*%
D11*
X21570Y7194D02*
Y13364D01*
Y7194D02*
X21980Y6784D01*
X21570Y13364D02*
X22300Y14094D01*
X19500Y6074D02*
X19950Y5624D01*
X19500Y6074D02*
Y16194D01*
X19950Y5624D02*
X23076D01*
X7568Y15300D02*
X7840D01*
X7865Y15275D01*
X12000Y10300D02*
X12010Y10310D01*
Y15854D01*
X9600Y17600D02*
X9700Y17500D01*
Y16560D02*
Y17500D01*
Y16560D02*
X9735Y16525D01*
X12848Y12752D02*
X12898Y12802D01*
X12500Y12400D02*
X12900Y12800D01*
X12000Y6600D02*
X12500D01*
Y12400D01*
X12000Y6600D02*
X12000Y6600D01*
X12000Y4700D02*
Y6600D01*
X5966Y10834D02*
X9867D01*
X5900Y10900D02*
X5966Y10834D01*
X7865Y16025D02*
X8775D01*
X7970Y11264D02*
X8600D01*
X4665Y10235D02*
X5800D01*
X18190Y19732D02*
X18229Y19771D01*
X15600Y11900D02*
X15626D01*
X15550Y8800D02*
Y9000D01*
X15600D01*
X16374Y12000D02*
X16400D01*
X5831Y15600D02*
X5900D01*
X10369Y18434D02*
X11980D01*
X9340Y17984D02*
X9700D01*
X6727Y12664D02*
Y13000D01*
Y12321D02*
Y12664D01*
X6300D02*
X6727D01*
X8400Y20007D02*
X8933Y19474D01*
X16221D01*
X19500Y16194D01*
X23076Y5624D02*
X24000Y4700D01*
X24550Y19550D02*
X25000Y20000D01*
X24550Y8250D02*
Y19550D01*
X24000Y7700D02*
X24550Y8250D01*
X3900Y11000D02*
X4665Y10235D01*
X8923Y13512D02*
Y14731D01*
X9217Y15025D01*
X9735D01*
X20000Y15409D02*
Y20000D01*
X15500Y7034D02*
Y7964D01*
X15000Y6534D02*
X15500Y7034D01*
X15000Y4700D02*
Y6534D01*
X16000Y4700D02*
Y5784D01*
X16590Y6374D01*
X13118Y14672D02*
X14058D01*
X14450D01*
X14482Y14704D01*
Y16924D01*
X14150Y17256D02*
X14482Y16924D01*
X15539Y17833D02*
X16000D01*
X15510Y17804D02*
X15539Y17833D01*
X6460Y12054D02*
X6727Y12321D01*
X5500Y11864D02*
X6300Y12664D01*
X5020Y11864D02*
X5500D01*
X4539Y12345D02*
X5020Y11864D01*
X4539Y12345D02*
Y12964D01*
X4400Y13103D02*
X4539Y12964D01*
X3575Y13103D02*
X4400D01*
X2900Y12428D02*
X3575Y13103D01*
X2900Y11000D02*
Y12428D01*
X19000Y17625D02*
Y20000D01*
X14000Y4245D02*
Y4700D01*
Y4245D02*
X15220Y3024D01*
X12035Y8504D02*
Y10200D01*
X11570Y8040D02*
X12035Y8504D01*
X11570Y4414D02*
Y8040D01*
Y4414D02*
X11990Y3994D01*
X12750D01*
X4600Y20383D02*
X4800D01*
X5201Y20784D01*
X7590D01*
X7970Y20404D01*
Y19764D02*
Y20404D01*
Y19764D02*
X8480Y19254D01*
X12210D01*
X12660Y18804D01*
Y16504D02*
Y18804D01*
X12010Y15854D02*
X12660Y16504D01*
X12400Y20007D02*
X12848Y20454D01*
X25440D01*
X25450Y20444D01*
Y18784D02*
Y20444D01*
X25000Y18334D02*
X25450Y18784D01*
X25000Y12000D02*
Y18334D01*
X18190Y17994D02*
Y19732D01*
X18000Y20000D02*
X18229Y19771D01*
X7865Y15025D02*
X8861D01*
X9050Y15214D01*
Y17694D01*
X9340Y17984D01*
X9700D02*
Y18200D01*
X12069Y18100D02*
Y18345D01*
X11980Y18434D02*
X12069Y18345D01*
X10369Y18200D02*
Y18434D01*
X9926Y12133D02*
Y12460D01*
X10140Y12674D01*
X10312D01*
X10638Y13000D01*
X10669D01*
X9735Y14275D02*
X10245D01*
X10669Y13851D01*
Y13000D02*
Y13851D01*
X21000Y7700D02*
Y13344D01*
X22000Y14344D01*
Y20000D01*
X22916Y6784D02*
X25000Y4700D01*
X21980Y6784D02*
X22916D01*
X22300Y14094D02*
Y16664D01*
X5073Y13000D02*
Y14205D01*
X4700Y14578D02*
X5073Y14205D01*
X3614Y14578D02*
X4700D01*
X16022Y14928D02*
X16342D01*
X15665Y15284D02*
X16022Y14928D01*
X15665Y15284D02*
Y16100D01*
X13035Y15284D02*
Y15600D01*
Y15284D02*
X13135Y15184D01*
X14058D01*
X7865Y13115D02*
Y14275D01*
Y13115D02*
X7980Y13000D01*
X8265D01*
X16374Y12000D02*
Y12100D01*
X10369Y17204D02*
Y17600D01*
Y17204D02*
X10689Y16884D01*
X11875D01*
X12035Y17044D01*
Y17300D01*
X15550Y8800D02*
X15569D01*
X15626Y11900D02*
Y12100D01*
X9867Y10834D02*
X10300Y11267D01*
X8600Y11264D02*
Y11267D01*
X7750Y11484D02*
X7970Y11264D01*
X5650Y11484D02*
X7750D01*
X5450Y11284D02*
X5650Y11484D01*
X5450Y10584D02*
Y11284D01*
Y10584D02*
X5800Y10235D01*
X8600D01*
X6500Y16600D02*
X6600D01*
X17900Y4700D02*
X18000D01*
X5931Y17500D02*
X6000D01*
X5811Y15600D02*
X5831D01*
X20000Y1000D02*
Y4700D01*
X21000Y1000D02*
Y4700D01*
X22000Y1000D02*
Y4700D01*
X23000Y1000D02*
Y4700D01*
X24000Y1000D02*
Y4700D01*
X25000Y1000D02*
Y4700D01*
X24000Y14344D02*
Y20000D01*
X23000Y13344D02*
X24000Y14344D01*
X23000Y7700D02*
Y13344D01*
Y14344D02*
Y20000D01*
X22000Y13344D02*
X23000Y14344D01*
X22000Y7700D02*
Y13344D01*
X21000Y14344D02*
Y20000D01*
X20000Y13344D02*
X21000Y14344D01*
X20000Y7700D02*
Y13344D01*
X13000Y4194D02*
Y4700D01*
Y4194D02*
X13100Y4094D01*
Y3600D02*
Y4094D01*
X10300Y10794D02*
Y11267D01*
Y10794D02*
X10400Y10694D01*
Y10235D02*
Y10694D01*
X10895Y10200D02*
X11365D01*
X10860Y10235D02*
X10895Y10200D01*
X10400Y10235D02*
X10860D01*
X17965Y15265D02*
X18400D01*
X17930Y15300D02*
X17965Y15265D01*
X17500Y15300D02*
X17930D01*
X16927Y14400D02*
X17500D01*
X16910Y14416D02*
X16927Y14400D01*
X16342Y14416D02*
X16910D01*
X17500Y14400D02*
Y15300D01*
X12365Y15129D02*
Y15600D01*
Y15129D02*
X12400Y15094D01*
Y14635D02*
Y15094D01*
X15626Y16544D02*
Y16967D01*
Y16544D02*
X15665Y16504D01*
Y16100D02*
Y16504D01*
X8265Y12584D02*
Y13000D01*
X8226Y12544D02*
X8265Y12584D01*
X8226Y12133D02*
Y12544D01*
X14058Y14928D02*
Y15184D01*
X25000Y7700D02*
Y10000D01*
X535Y20481D02*
X3665D01*
X4178Y20383D02*
X4600D01*
X4080Y20481D02*
X4178Y20383D01*
X3665Y20481D02*
X4080D01*
X8775Y16025D02*
X8800Y16000D01*
X8100Y15500D02*
X8800D01*
X8075Y15525D02*
X8100Y15500D01*
X7865Y15525D02*
X8075D01*
X6600Y14800D02*
X6982D01*
X6500D02*
X6600D01*
X2800Y8700D02*
X2806Y8706D01*
X3142D01*
X900Y6200D02*
X931Y6169D01*
Y5500D02*
Y6169D01*
X3300Y5500D02*
X3335D01*
D12*
X1604Y7872D02*
Y9496D01*
X1600Y9500D02*
X1604Y9496D01*
X7569Y8069D02*
X8042Y8542D01*
X13769Y1231D02*
Y3600D01*
X16990Y4700D02*
Y4959D01*
X7354Y15289D02*
X7700D01*
X7265Y15199D02*
X7354Y15289D01*
X6970Y15525D02*
X7865D01*
X14050Y14004D02*
Y14416D01*
X17340Y8284D02*
X18000D01*
X11280Y12083D02*
Y14295D01*
X6500Y14800D02*
X6600Y14700D01*
X5052Y7000D02*
X5600D01*
X4400Y6900D02*
X4952D01*
X3294Y6894D02*
X3335D01*
Y6694D02*
X3540Y6900D01*
X3335Y6694D02*
Y6894D01*
X3040Y6640D02*
X3294Y6894D01*
X3040Y5660D02*
X3300Y5400D01*
X1953Y2700D02*
X2100D01*
X7265Y14824D02*
Y15199D01*
X7240Y14800D02*
X7265Y14824D01*
X12450Y16654D02*
Y17844D01*
X11400D02*
Y18100D01*
Y17709D02*
Y17844D01*
X10674Y12464D02*
X10783D01*
X8890Y18784D02*
X9280D01*
X8490Y17994D02*
Y18384D01*
Y16134D02*
Y16135D01*
X8380Y16025D02*
X8381D01*
X8350Y8634D02*
X9166D01*
X8134D02*
X8350D01*
X8600Y8884D01*
X8258Y8542D02*
X8350Y8634D01*
X8042Y8542D02*
X8258D01*
X8856D01*
X7500D02*
X8042D01*
X8134Y8634D01*
X7500Y7900D02*
Y8542D01*
Y6300D02*
Y7900D01*
Y6258D02*
Y6300D01*
Y7900D02*
X7600D01*
X5700D02*
X7500D01*
X5650D02*
X5700D01*
X9700Y675D02*
Y6600D01*
X7700Y4800D02*
X7700D01*
X7446D02*
X7700D01*
Y5400D01*
Y4546D02*
Y4800D01*
Y3300D02*
Y4546D01*
Y3000D02*
Y3300D01*
X14542Y14416D02*
X14920D01*
X13840D02*
X14050D01*
X17100Y8600D02*
Y8800D01*
Y8525D02*
Y8600D01*
X13510Y14086D02*
X13840Y14416D01*
X13390Y13965D02*
X13510Y14086D01*
X10910Y11714D02*
X11280Y12083D01*
X11280Y12084D01*
X11280Y11993D02*
Y12083D01*
X14300Y8800D02*
X14900D01*
X13939D02*
X14300D01*
X7260Y14040D02*
Y14780D01*
Y12034D02*
Y14040D01*
X6982Y14800D02*
X7240D01*
X10910Y11714D02*
X11000D01*
X7900D02*
X10910D01*
X7580D02*
X7900D01*
X7260Y14040D02*
X7550Y13750D01*
X6600Y14700D02*
X7260Y14040D01*
X6600Y14700D02*
Y14800D01*
Y14484D02*
Y14700D01*
X3540Y6900D02*
X4400D01*
X3500D02*
X3540D01*
X3740Y7100D01*
X3142Y6894D02*
X3294D01*
X3300Y6900D01*
X5700Y4700D02*
Y4800D01*
X9260Y14775D02*
X9735D01*
X9130Y14645D02*
X9260Y14775D01*
X9130Y14164D02*
Y14645D01*
Y14164D02*
X10000Y13295D01*
Y13000D02*
Y13295D01*
X8856Y8542D02*
X9328Y8069D01*
X9700D01*
X13769Y1231D02*
X14000Y1000D01*
X3740Y7100D02*
X4600D01*
X3335Y5500D02*
Y6694D01*
X16135Y13500D02*
X16555D01*
X19110Y10944D01*
Y9684D02*
Y10944D01*
X18460Y9034D02*
X19110Y9684D01*
X18460Y7404D02*
Y9034D01*
X18300Y7244D02*
X18460Y7404D01*
X16179Y7244D02*
X18300D01*
X15500Y6565D02*
X16179Y7244D01*
X15500Y1500D02*
Y6565D01*
X15000Y1000D02*
X15500Y1500D01*
X17100Y8525D02*
X17340Y8284D01*
X9700Y675D02*
X9850Y524D01*
X16280D01*
X16480Y724D01*
Y5044D01*
X18400Y6964D01*
X17944Y13731D02*
X18620Y13054D01*
X17500Y13731D02*
X17944D01*
X16990Y4700D02*
X17000D01*
X16990Y4959D02*
X18500Y6469D01*
X2565Y7800D02*
X3142D01*
X2510Y7854D02*
X2565Y7800D01*
X10800Y15669D02*
Y16194D01*
X7550Y12064D02*
Y13750D01*
Y12064D02*
X7900Y11714D01*
X11000D02*
X11280Y11993D01*
X11244Y14331D02*
X11280Y14295D01*
X11280Y12084D02*
Y13734D01*
X1760Y17440D02*
Y18189D01*
X1240Y18709D02*
X1760Y18189D01*
X535Y18709D02*
X1240D01*
X14058Y14416D02*
X14542D01*
X14690Y14564D01*
Y17604D01*
X15460Y18374D01*
X16910D01*
X18400Y16885D01*
Y15935D02*
Y16885D01*
X10800Y15000D02*
X11100D01*
X11757Y15657D01*
Y15961D01*
X12450Y16654D01*
X8490Y18384D02*
X8890Y18784D01*
X8381Y16025D02*
X8490Y16134D01*
X7260Y12034D02*
X7580Y11714D01*
X8406Y5505D02*
Y6258D01*
X7700Y4800D02*
X8406Y5505D01*
X8600Y8884D02*
Y9565D01*
X12400Y13965D02*
X13390D01*
X7865Y16025D02*
X8380D01*
X8490Y16135D01*
Y17994D01*
X9280Y18784D01*
X12060D01*
X12450Y18394D01*
Y17844D02*
Y18394D01*
X12350Y17744D02*
X12450Y17844D01*
X11500Y17744D02*
X12350D01*
X11400Y17844D02*
X11500Y17744D01*
X12890Y9849D02*
X13939Y8800D01*
X12890Y9849D02*
Y10951D01*
X13020D01*
X13510Y11441D01*
Y14086D01*
X4973Y8542D02*
X7500D01*
X3420Y10094D02*
X4973Y8542D01*
X3420Y10094D02*
Y11974D01*
X4290Y12844D01*
X4600Y19305D02*
Y19714D01*
Y19305D02*
X5250Y18654D01*
X10800Y14754D02*
Y15000D01*
Y14754D02*
X10877Y14677D01*
Y13444D02*
Y14677D01*
Y13444D02*
X11043Y13278D01*
Y12724D02*
Y13278D01*
X10783Y12464D02*
X11043Y12724D01*
X10674Y12133D02*
Y12464D01*
X9735Y14775D02*
X10340D01*
X10565Y15000D01*
X10800D01*
X3665Y18404D02*
Y18709D01*
Y18404D02*
X3745Y18324D01*
X6130D01*
X6600Y17854D01*
Y17500D02*
Y17854D01*
X3040Y5660D02*
Y6640D01*
X5550Y7800D02*
X5650Y7900D01*
X4600Y7800D02*
X5550D01*
X15010Y15200D02*
Y17204D01*
X15190Y17384D01*
X16274D01*
X16374Y17284D01*
Y16967D02*
Y17284D01*
X14050Y14416D02*
X14058D01*
X14050Y14004D02*
X14555Y13500D01*
X15465D01*
X2827Y13767D02*
Y14578D01*
X1760Y12700D02*
X2827Y13767D01*
X5700Y4800D02*
X5754D01*
X900Y11000D02*
X1760Y11860D01*
Y12700D01*
X1953Y2700D02*
Y3000D01*
X7700Y5400D02*
X8400Y6100D01*
X15980Y14672D02*
X16342D01*
X15880Y14572D02*
X15980Y14672D01*
X15880Y14258D02*
Y14572D01*
Y14258D02*
X16135Y14004D01*
Y13500D02*
Y14004D01*
X8935Y13000D02*
X10000D01*
X6300Y14184D02*
X6600Y14484D01*
X5900Y14184D02*
X6300D01*
X5010Y15074D02*
X5900Y14184D01*
X3323Y15074D02*
X5010D01*
X2827Y14578D02*
X3323Y15074D01*
X4952Y6900D02*
X5052Y7000D01*
X9166Y8634D02*
X9700Y8100D01*
Y6600D02*
Y6731D01*
X11365Y17674D02*
X11400Y17709D01*
X11365Y17300D02*
Y17674D01*
X7865Y15775D02*
Y16025D01*
X8935Y12584D02*
Y13000D01*
Y12584D02*
X8974Y12544D01*
Y12133D02*
Y12544D01*
X16335Y15641D02*
Y16100D01*
Y15641D02*
X16342Y15634D01*
Y15184D02*
Y15634D01*
X16374Y16544D02*
Y16967D01*
X16335Y16504D02*
X16374Y16544D01*
X16335Y16100D02*
Y16504D01*
X17000Y1000D02*
Y4700D01*
X8600Y9565D02*
X10400D01*
X17965Y15935D02*
X18400D01*
X17930Y15969D02*
X17965Y15935D01*
X17500Y15969D02*
X17930D01*
X10335Y15669D02*
X10800D01*
X10190Y15525D02*
X10335Y15669D01*
X9735Y15525D02*
X10190D01*
X1240Y18709D02*
X3665D01*
D14*
X6500Y15600D02*
X7175Y16275D01*
X5900Y14900D02*
Y15600D01*
X5965Y14800D02*
Y14835D01*
X5831Y17331D02*
X6000Y17500D01*
X5931Y14800D02*
X5965D01*
X1600Y5500D02*
X2665D01*
X5831Y16600D02*
Y17331D01*
X5900Y14900D02*
X5965Y14835D01*
X7175Y16275D02*
X7865D01*
X6600Y16600D02*
X6675Y16525D01*
X7865D01*
X2700Y5500D02*
X2700D01*
X2665D02*
X2700D01*
D17*
X12400Y14635D02*
D03*
Y13965D02*
D03*
X17500Y15969D02*
D03*
Y15300D02*
D03*
Y14400D02*
D03*
Y13731D02*
D03*
X10400Y9565D02*
D03*
Y10235D02*
D03*
X8600D02*
D03*
Y9565D02*
D03*
X10800Y15000D02*
D03*
Y15669D02*
D03*
X5600Y7065D02*
D03*
Y7735D02*
D03*
X4600Y7100D02*
D03*
Y7769D02*
D03*
X4600Y20383D02*
D03*
Y19714D02*
D03*
X18400Y15935D02*
D03*
Y15265D02*
D03*
D18*
X12365Y15600D02*
D03*
X13035D02*
D03*
X11400Y18100D02*
D03*
X12069D02*
D03*
X16335Y16100D02*
D03*
X15665D02*
D03*
X15465Y13500D02*
D03*
X16135D02*
D03*
X11365Y17300D02*
D03*
X12035D02*
D03*
X10369Y17600D02*
D03*
X9700D02*
D03*
X10369Y18300D02*
D03*
X9700D02*
D03*
X12035Y10200D02*
D03*
X11365D02*
D03*
X10000Y13000D02*
D03*
X10669D02*
D03*
X1600Y5500D02*
D03*
X931D02*
D03*
X8265Y13000D02*
D03*
X8935D02*
D03*
X3335Y5500D02*
D03*
X2665D02*
D03*
X6600Y17500D02*
D03*
X5931D02*
D03*
X6600Y14800D02*
D03*
X5931D02*
D03*
X5831Y15600D02*
D03*
X6500D02*
D03*
X5831Y16600D02*
D03*
X6500D02*
D03*
X13100Y3600D02*
D03*
X13769D02*
D03*
X18900Y3700D02*
D03*
X18231D02*
D03*
X14900Y8800D02*
D03*
X15569D02*
D03*
X17100D02*
D03*
X16431D02*
D03*
D19*
X16000Y17833D02*
D03*
X16374Y16967D02*
D03*
X15626D02*
D03*
X10300Y11267D02*
D03*
X9926Y12133D02*
D03*
X10674D02*
D03*
X8600Y11267D02*
D03*
X8226Y12133D02*
D03*
X8974D02*
D03*
D20*
X16342Y15184D02*
D03*
Y14928D02*
D03*
Y14672D02*
D03*
Y14416D02*
D03*
X14058D02*
D03*
Y14672D02*
D03*
Y14928D02*
D03*
Y15184D02*
D03*
D21*
X16374Y12100D02*
D03*
X15626D02*
D03*
D22*
X9700Y6731D02*
D03*
Y8069D02*
D03*
D23*
X5073Y13000D02*
D03*
X6727D02*
D03*
D24*
X858Y7800D02*
D03*
D25*
X3142Y8706D02*
D03*
Y7800D02*
D03*
Y6894D02*
D03*
D26*
X5754Y4800D02*
D03*
X7446D02*
D03*
D27*
X7700Y3000D02*
D03*
Y1000D02*
D03*
D28*
X3665Y18709D02*
D03*
X535D02*
D03*
Y20481D02*
D03*
X3665D02*
D03*
D29*
X7865Y16525D02*
D03*
Y16275D02*
D03*
Y16025D02*
D03*
Y15775D02*
D03*
Y15525D02*
D03*
Y15275D02*
D03*
Y15025D02*
D03*
Y14775D02*
D03*
Y14525D02*
D03*
Y14275D02*
D03*
X9735Y16525D02*
D03*
Y16275D02*
D03*
Y16025D02*
D03*
Y15775D02*
D03*
Y15525D02*
D03*
Y15275D02*
D03*
Y15025D02*
D03*
Y14775D02*
D03*
Y14525D02*
D03*
Y14275D02*
D03*
D30*
X14130Y10400D02*
D03*
X17870D02*
D03*
D31*
X6594Y6258D02*
D03*
X7500D02*
D03*
X8406D02*
D03*
D32*
X7500Y8542D02*
D03*
D61*
X4000Y7700D02*
X4000Y7700D01*
X3900Y7800D02*
X4000Y7700D01*
X3200Y7800D02*
X3900D01*
X5700Y7900D02*
X7500D01*
X7600D01*
X7569Y8069D02*
X9700D01*
Y8100D02*
X10600D01*
X11200Y2400D02*
X14000D01*
X2000Y8700D02*
X2800D01*
X17100Y8600D02*
X18000Y7700D01*
X3500Y6900D02*
X4400D01*
X7300Y1000D02*
X7800D01*
X3300Y5500D02*
Y6900D01*
X7700Y1000D02*
X8400D01*
X6200Y2100D02*
X7300Y1000D01*
X5300Y2100D02*
X6200D01*
X5125Y1925D02*
X5300Y2100D01*
X5117Y1925D02*
X5125D01*
X4223Y1031D02*
X5117Y1925D01*
X3134Y1031D02*
X4223D01*
X7446Y4800D02*
X8400Y5754D01*
X8200Y2900D02*
X10100Y1000D01*
X7800Y3300D02*
X8200Y2900D01*
X7700Y3300D02*
X7800D01*
X18900Y4600D02*
X19000Y4700D01*
X18900Y3700D02*
Y4600D01*
X14300Y8800D02*
X14900D01*
X17100Y8600D02*
Y8800D01*
X12000Y1000D02*
X13000D01*
X12000D02*
Y1700D01*
X10100Y1000D02*
X11000D01*
X2000Y6900D02*
X3136D01*
X7500Y6300D02*
Y7900D01*
X5569Y7769D02*
X5600Y7800D01*
X5700Y7900D01*
X5600Y7735D02*
Y7800D01*
X10600Y8100D02*
X10800Y7900D01*
Y2800D02*
Y7900D01*
Y2800D02*
X11200Y2400D01*
X14000Y1000D02*
Y2400D01*
X4600Y7769D02*
X5569D01*
X3694Y8706D02*
X4600Y7800D01*
X3142Y8706D02*
X3694D01*
X7700Y3300D02*
Y4546D01*
X7446Y4800D02*
X7700Y4546D01*
X3136Y6900D02*
X3142Y6894D01*
X4400Y6900D02*
X4600Y7100D01*
X4600D02*
X4635Y7065D01*
X5600D01*
X5600Y7000D02*
X6342Y6258D01*
X6594D01*
X7500D02*
Y6300D01*
X9358Y6258D02*
X9700Y6600D01*
X8406Y6258D02*
X9358D01*
X8400Y5754D02*
Y6100D01*
X4394Y3394D02*
X5700Y4700D01*
X4394Y3000D02*
Y3394D01*
X3300Y4347D02*
Y5400D01*
X1953Y3000D02*
X3300Y4347D01*
X2100Y2100D02*
Y2700D01*
Y2100D02*
X3134Y1066D01*
Y1031D02*
Y1066D01*
D62*
X17950Y4650D02*
X18231Y4369D01*
X17900Y4700D02*
X17950Y4650D01*
X16400Y8800D02*
Y9400D01*
X3600Y15600D02*
X5831D01*
X16400Y8800D02*
X16431D01*
X3600Y15600D02*
X3614Y15562D01*
X2800Y15600D02*
X2827Y15562D01*
X2800Y15600D02*
Y15700D01*
X3600Y16500D01*
X5700D01*
X5800Y16600D01*
X5831D01*
X18231Y3700D02*
Y4369D01*
X15569Y8331D02*
X15600Y8300D01*
X16000Y7700D02*
Y8369D01*
X16431Y8800D01*
X15569Y8331D02*
Y8800D01*
X15500Y11900D02*
X15600D01*
X14130Y10530D02*
X15500Y11900D01*
X14130Y10400D02*
Y10530D01*
X17870Y10400D02*
Y10530D01*
X16400Y12000D02*
X17870Y10530D01*
X17770Y10300D02*
X17870Y10400D01*
X17300Y10300D02*
X17770D01*
X16400Y9400D02*
X17300Y10300D01*
X15600Y9000D02*
Y9400D01*
X14600Y10400D02*
X15600Y9400D01*
X14130Y10400D02*
X14600D01*
D63*
X6000Y20000D02*
D03*
X26000Y14000D02*
D03*
Y3000D02*
D03*
X5500Y1000D02*
D03*
D64*
X18000D02*
D03*
X17000D02*
D03*
X16000D02*
D03*
X15000D02*
D03*
X14000D02*
D03*
X13000D02*
D03*
X12000D02*
D03*
X5900Y11000D02*
D03*
X4900D02*
D03*
X3900D02*
D03*
X2900D02*
D03*
X1900D02*
D03*
X25000Y1000D02*
D03*
X24000D02*
D03*
X23000D02*
D03*
X22000D02*
D03*
X21000D02*
D03*
X26000Y12000D02*
D03*
X25000Y11000D02*
D03*
X26000D02*
D03*
X25000Y10000D02*
D03*
X26000D02*
D03*
X18000Y20000D02*
D03*
X19000D02*
D03*
X20000D02*
D03*
X21000D02*
D03*
X22000D02*
D03*
X23000D02*
D03*
X24000D02*
D03*
D65*
X11000Y1000D02*
D03*
X900Y11000D02*
D03*
X20000Y1000D02*
D03*
X25000Y20000D02*
D03*
D66*
X3614Y14578D02*
D03*
Y15562D02*
D03*
X2827Y14578D02*
D03*
Y15562D02*
D03*
X1760Y17440D02*
D03*
D67*
Y12700D02*
D03*
Y17440D02*
D03*
D68*
X12000Y4700D02*
D03*
X13000D02*
D03*
X14000D02*
D03*
X15000D02*
D03*
X16000D02*
D03*
X17000D02*
D03*
X18000D02*
D03*
X19000D02*
D03*
X20000D02*
D03*
X21000D02*
D03*
X22000D02*
D03*
X23000D02*
D03*
X24000D02*
D03*
X25000D02*
D03*
X12000Y7700D02*
D03*
X13000D02*
D03*
X14000D02*
D03*
X15000D02*
D03*
X16000D02*
D03*
X17000D02*
D03*
X18000D02*
D03*
X19000D02*
D03*
X20000D02*
D03*
X21000D02*
D03*
X22000D02*
D03*
X23000D02*
D03*
X24000D02*
D03*
X9400Y20007D02*
D03*
X16400D02*
D03*
X15400D02*
D03*
X14400D02*
D03*
X13400D02*
D03*
X12400D02*
D03*
X11400D02*
D03*
X10400D02*
D03*
X8400D02*
D03*
D69*
X25000Y7700D02*
D03*
D70*
Y12000D02*
D03*
D71*
X7400Y20007D02*
D03*
D72*
X3134Y1031D02*
D03*
D73*
X1953Y3000D02*
D03*
X4394D02*
D03*
D74*
X1604Y7872D02*
D03*
X1600Y9500D02*
D03*
X4000Y7700D02*
D03*
X2000Y8700D02*
D03*
X6970Y15525D02*
D03*
X8923Y13512D02*
D03*
X20000Y15409D02*
D03*
X12910Y12814D02*
D03*
X15500Y7964D02*
D03*
X16590Y6374D02*
D03*
X13118Y14672D02*
D03*
X14150Y17256D02*
D03*
X15510Y17804D02*
D03*
X6460Y12054D02*
D03*
X19000Y17625D02*
D03*
X15220Y3024D02*
D03*
X12750Y3994D02*
D03*
X18000Y8284D02*
D03*
X18400Y6964D02*
D03*
X18620Y13054D02*
D03*
X18500Y6469D02*
D03*
X2510Y7854D02*
D03*
X10800Y16194D02*
D03*
X11244Y14331D02*
D03*
X11280Y13734D02*
D03*
X18190Y17994D02*
D03*
X14920Y14416D02*
D03*
X4290Y12844D02*
D03*
X5250Y18654D02*
D03*
X15010Y15200D02*
D03*
X22300Y16664D02*
D03*
X8800Y16000D02*
D03*
Y15500D02*
D03*
X14300Y8800D02*
D03*
X15600Y8300D02*
D03*
X900Y6200D02*
D03*
X12000Y1700D02*
D03*
X2000Y6900D02*
D03*
X8200Y2900D02*
D03*
X8400Y1000D02*
D03*
M02*
