M48
;Layer_Color=9474304
;FILE_FORMAT=2:4
INCH,LZ
;TYPE=PLATED
T1F00S00C0.0120
T2F00S00C0.0300
T3F00S00C0.0354
T4F00S00C0.0362
T5F00S00C0.0394
T6F00S00C0.0866
T7F00S00C0.0906
T8F00S00C0.1063
T9F00S00C0.1240
%
T01
X0009Y0062
X002Y0069
X001604Y007872
X00251Y007854
X002Y0087
X0016Y0095
X004Y0077
X00429Y012844
X00646Y012054
X008923Y013512
X0088Y0155
X00697Y015525
X011244Y014331
X01128Y013734
X01291Y012814
X013118Y014672
X01275Y003994
X012Y0017
X0084Y001
X0082Y0029
X01522Y003024
X01659Y006374
X0185Y006469
X0184Y006964
X018Y008284
X0156Y0083
X0155Y007964
X0143Y0088
X01492Y014416
X01501Y0152
X02Y015409
X01862Y013054
X019Y017625
X01819Y017994
X01551Y017804
X01415Y017256
X0223Y016664
X0108Y016194
X0088Y016
X00525Y018654
T02
X00176Y01744
T03
X012Y0047
X013
Y0077
X012
X014
X015
X016
X017
X018
X019
X02
X021
X022
X023
X024
X025
Y0047
X024
X023
X022
X021
X02
X019
X018
X017
X016
X015
X014
X0144Y020007
X0154
X0164
X0134
X0124
X0114
X0104
X0094
X0084
X0074
T04
X002827Y014578
X003614
Y015562
X002827
T05
X0009Y011
X0019
X0029
X0039
X0049
X0059
X011Y001
X012
X013
X014
X015
X016
X017
X018
X02
X021
X022
X023
X024
X025
Y01
Y011
Y012
X026
Y011
Y01
X025Y02
X024
X023
X022
X021
X02
X019
X018
T06
X003134Y001031
T07
X00176Y0127
Y01744
T08
X001953Y003
X004394
T09
X0055Y001
X026Y003
Y014
X006Y02
M30
